%TF.GenerationSoftware,KiCad,Pcbnew,9.0.8+dfsg-1*%
%TF.CreationDate,2026-06-07T13:43:38+10:00*%
%TF.ProjectId,DW01 Charger,44573031-2043-4686-9172-6765722e6b69,rev?*%
%TF.SameCoordinates,Original*%
%TF.FileFunction,Soldermask,Top*%
%TF.FilePolarity,Negative*%
%FSLAX46Y46*%
G04 Gerber Fmt 4.6, Leading zero omitted, Abs format (unit mm)*
G04 Created by KiCad (PCBNEW 9.0.8+dfsg-1) date 2026-06-07 13:43:38*
%MOMM*%
%LPD*%
G01*
G04 APERTURE LIST*
%ADD10R,1.700000X1.700000*%
%ADD11R,0.460000X0.650000*%
G04 APERTURE END LIST*
D10*
%TO.C,J1*%
X104500000Y-43000000D03*
%TD*%
D11*
%TO.C,Q2*%
X121500000Y-53300000D03*
X120500000Y-53300000D03*
X121000000Y-54450000D03*
%TD*%
%TO.C,R1*%
G36*
G01*
X127225000Y-52275000D02*
X127775000Y-52275000D01*
G75*
G02*
X127975000Y-52475000I0J-200000D01*
G01*
X127975000Y-52875000D01*
G75*
G02*
X127775000Y-53075000I-200000J0D01*
G01*
X127225000Y-53075000D01*
G75*
G02*
X127025000Y-52875000I0J200000D01*
G01*
X127025000Y-52475000D01*
G75*
G02*
X127225000Y-52275000I200000J0D01*
G01*
G37*
G36*
G01*
X127225000Y-53925000D02*
X127775000Y-53925000D01*
G75*
G02*
X127975000Y-54125000I0J-200000D01*
G01*
X127975000Y-54525000D01*
G75*
G02*
X127775000Y-54725000I-200000J0D01*
G01*
X127225000Y-54725000D01*
G75*
G02*
X127025000Y-54525000I0J200000D01*
G01*
X127025000Y-54125000D01*
G75*
G02*
X127225000Y-53925000I200000J0D01*
G01*
G37*
%TD*%
%TO.C,C1*%
G36*
G01*
X116250000Y-47275000D02*
X116750000Y-47275000D01*
G75*
G02*
X116975000Y-47500000I0J-225000D01*
G01*
X116975000Y-47950000D01*
G75*
G02*
X116750000Y-48175000I-225000J0D01*
G01*
X116250000Y-48175000D01*
G75*
G02*
X116025000Y-47950000I0J225000D01*
G01*
X116025000Y-47500000D01*
G75*
G02*
X116250000Y-47275000I225000J0D01*
G01*
G37*
G36*
G01*
X116250000Y-48825000D02*
X116750000Y-48825000D01*
G75*
G02*
X116975000Y-49050000I0J-225000D01*
G01*
X116975000Y-49500000D01*
G75*
G02*
X116750000Y-49725000I-225000J0D01*
G01*
X116250000Y-49725000D01*
G75*
G02*
X116025000Y-49500000I0J225000D01*
G01*
X116025000Y-49050000D01*
G75*
G02*
X116250000Y-48825000I225000J0D01*
G01*
G37*
%TD*%
D10*
%TO.C,J3*%
X133000000Y-43000000D03*
%TD*%
%TO.C,J2*%
X104000000Y-57000000D03*
%TD*%
%TO.C,J4*%
X133000000Y-57000000D03*
%TD*%
%TO.C,R2*%
G36*
G01*
X116017500Y-42775000D02*
X116567500Y-42775000D01*
G75*
G02*
X116767500Y-42975000I0J-200000D01*
G01*
X116767500Y-43375000D01*
G75*
G02*
X116567500Y-43575000I-200000J0D01*
G01*
X116017500Y-43575000D01*
G75*
G02*
X115817500Y-43375000I0J200000D01*
G01*
X115817500Y-42975000D01*
G75*
G02*
X116017500Y-42775000I200000J0D01*
G01*
G37*
G36*
G01*
X116017500Y-44425000D02*
X116567500Y-44425000D01*
G75*
G02*
X116767500Y-44625000I0J-200000D01*
G01*
X116767500Y-45025000D01*
G75*
G02*
X116567500Y-45225000I-200000J0D01*
G01*
X116017500Y-45225000D01*
G75*
G02*
X115817500Y-45025000I0J200000D01*
G01*
X115817500Y-44625000D01*
G75*
G02*
X116017500Y-44425000I200000J0D01*
G01*
G37*
%TD*%
D11*
%TO.C,Q1*%
X115000000Y-53300000D03*
X114000000Y-53300000D03*
X114500000Y-54450000D03*
%TD*%
%TO.C,U1*%
G36*
G01*
X125437500Y-49250000D02*
X125437500Y-49550000D01*
G75*
G02*
X125287500Y-49700000I-150000J0D01*
G01*
X124262500Y-49700000D01*
G75*
G02*
X124112500Y-49550000I0J150000D01*
G01*
X124112500Y-49250000D01*
G75*
G02*
X124262500Y-49100000I150000J0D01*
G01*
X125287500Y-49100000D01*
G75*
G02*
X125437500Y-49250000I0J-150000D01*
G01*
G37*
G36*
G01*
X125437500Y-48300000D02*
X125437500Y-48600000D01*
G75*
G02*
X125287500Y-48750000I-150000J0D01*
G01*
X124262500Y-48750000D01*
G75*
G02*
X124112500Y-48600000I0J150000D01*
G01*
X124112500Y-48300000D01*
G75*
G02*
X124262500Y-48150000I150000J0D01*
G01*
X125287500Y-48150000D01*
G75*
G02*
X125437500Y-48300000I0J-150000D01*
G01*
G37*
G36*
G01*
X125437500Y-47350000D02*
X125437500Y-47650000D01*
G75*
G02*
X125287500Y-47800000I-150000J0D01*
G01*
X124262500Y-47800000D01*
G75*
G02*
X124112500Y-47650000I0J150000D01*
G01*
X124112500Y-47350000D01*
G75*
G02*
X124262500Y-47200000I150000J0D01*
G01*
X125287500Y-47200000D01*
G75*
G02*
X125437500Y-47350000I0J-150000D01*
G01*
G37*
G36*
G01*
X123162500Y-47350000D02*
X123162500Y-47650000D01*
G75*
G02*
X123012500Y-47800000I-150000J0D01*
G01*
X121987500Y-47800000D01*
G75*
G02*
X121837500Y-47650000I0J150000D01*
G01*
X121837500Y-47350000D01*
G75*
G02*
X121987500Y-47200000I150000J0D01*
G01*
X123012500Y-47200000D01*
G75*
G02*
X123162500Y-47350000I0J-150000D01*
G01*
G37*
G36*
G01*
X123162500Y-48300000D02*
X123162500Y-48600000D01*
G75*
G02*
X123012500Y-48750000I-150000J0D01*
G01*
X121987500Y-48750000D01*
G75*
G02*
X121837500Y-48600000I0J150000D01*
G01*
X121837500Y-48300000D01*
G75*
G02*
X121987500Y-48150000I150000J0D01*
G01*
X123012500Y-48150000D01*
G75*
G02*
X123162500Y-48300000I0J-150000D01*
G01*
G37*
G36*
G01*
X123162500Y-49250000D02*
X123162500Y-49550000D01*
G75*
G02*
X123012500Y-49700000I-150000J0D01*
G01*
X121987500Y-49700000D01*
G75*
G02*
X121837500Y-49550000I0J150000D01*
G01*
X121837500Y-49250000D01*
G75*
G02*
X121987500Y-49100000I150000J0D01*
G01*
X123012500Y-49100000D01*
G75*
G02*
X123162500Y-49250000I0J-150000D01*
G01*
G37*
%TD*%
M02*
