%TF.GenerationSoftware,KiCad,Pcbnew,9.0.8+dfsg-1*%
%TF.CreationDate,2026-06-06T18:35:51+10:00*%
%TF.ProjectId,DW01 Charger,44573031-2043-4686-9172-6765722e6b69,rev?*%
%TF.SameCoordinates,Original*%
%TF.FileFunction,Legend,Top*%
%TF.FilePolarity,Positive*%
%FSLAX46Y46*%
G04 Gerber Fmt 4.6, Leading zero omitted, Abs format (unit mm)*
G04 Created by KiCad (PCBNEW 9.0.8+dfsg-1) date 2026-06-06 18:35:51*
%MOMM*%
%LPD*%
G01*
G04 APERTURE LIST*
G04 Aperture macros list*
%AMRoundRect*
0 Rectangle with rounded corners*
0 $1 Rounding radius*
0 $2 $3 $4 $5 $6 $7 $8 $9 X,Y pos of 4 corners*
0 Add a 4 corners polygon primitive as box body*
4,1,4,$2,$3,$4,$5,$6,$7,$8,$9,$2,$3,0*
0 Add four circle primitives for the rounded corners*
1,1,$1+$1,$2,$3*
1,1,$1+$1,$4,$5*
1,1,$1+$1,$6,$7*
1,1,$1+$1,$8,$9*
0 Add four rect primitives between the rounded corners*
20,1,$1+$1,$2,$3,$4,$5,0*
20,1,$1+$1,$4,$5,$6,$7,0*
20,1,$1+$1,$6,$7,$8,$9,0*
20,1,$1+$1,$8,$9,$2,$3,0*%
G04 Aperture macros list end*
%ADD10C,0.150000*%
%ADD11C,0.100000*%
%ADD12C,0.120000*%
%ADD13C,0.203200*%
%TA.AperFunction,ComponentPad*%
%ADD14R,1.700000X1.700000*%
%TD*%
%ADD15R,1.700000X1.700000*%
%TA.AperFunction,SMDPad,CuDef*%
%ADD16RoundRect,0.150000X0.512500X0.150000X-0.512500X0.150000X-0.512500X-0.150000X0.512500X-0.150000X0*%
%TD*%
%TA.AperFunction,SMDPad,CuDef*%
%ADD17R,0.460000X0.650000*%
%TD*%
%TA.AperFunction,SMDPad,CuDef*%
%ADD18RoundRect,0.200000X-0.275000X0.200000X-0.275000X-0.200000X0.275000X-0.200000X0.275000X0.200000X0*%
%TD*%
%TA.AperFunction,SMDPad,CuDef*%
%ADD19RoundRect,0.225000X-0.250000X0.225000X-0.250000X-0.225000X0.250000X-0.225000X0.250000X0.225000X0*%
%TD*%
%TA.AperFunction,Conductor*%
%ADD20C,0.200000*%
%TD*%
%ADD21RoundRect,0.150000X0.512500X0.150000X-0.512500X0.150000X-0.512500X-0.150000X0.512500X-0.150000X0*%
%ADD22R,0.460000X0.650000*%
%ADD23RoundRect,0.200000X-0.275000X0.200000X-0.275000X-0.200000X0.275000X-0.200000X0.275000X0.200000X0*%
%ADD24RoundRect,0.225000X-0.250000X0.225000X-0.250000X-0.225000X0.250000X-0.225000X0.250000X0.225000X0*%
%TA.AperFunction,Profile*%
%ADD25C,0.050000*%
%TD*%
G04 APERTURE END LIST*
D10*
X102232143Y-40839164D02*
X102232143Y-40089164D01*
X102232143Y-40089164D02*
X102517857Y-40089164D01*
X102517857Y-40089164D02*
X102589286Y-40124878D01*
X102589286Y-40124878D02*
X102625000Y-40160592D01*
X102625000Y-40160592D02*
X102660714Y-40232021D01*
X102660714Y-40232021D02*
X102660714Y-40339164D01*
X102660714Y-40339164D02*
X102625000Y-40410592D01*
X102625000Y-40410592D02*
X102589286Y-40446307D01*
X102589286Y-40446307D02*
X102517857Y-40482021D01*
X102517857Y-40482021D02*
X102232143Y-40482021D01*
X103089286Y-40839164D02*
X103017857Y-40803450D01*
X103017857Y-40803450D02*
X102982143Y-40767735D01*
X102982143Y-40767735D02*
X102946429Y-40696307D01*
X102946429Y-40696307D02*
X102946429Y-40482021D01*
X102946429Y-40482021D02*
X102982143Y-40410592D01*
X102982143Y-40410592D02*
X103017857Y-40374878D01*
X103017857Y-40374878D02*
X103089286Y-40339164D01*
X103089286Y-40339164D02*
X103196429Y-40339164D01*
X103196429Y-40339164D02*
X103267857Y-40374878D01*
X103267857Y-40374878D02*
X103303572Y-40410592D01*
X103303572Y-40410592D02*
X103339286Y-40482021D01*
X103339286Y-40482021D02*
X103339286Y-40696307D01*
X103339286Y-40696307D02*
X103303572Y-40767735D01*
X103303572Y-40767735D02*
X103267857Y-40803450D01*
X103267857Y-40803450D02*
X103196429Y-40839164D01*
X103196429Y-40839164D02*
X103089286Y-40839164D01*
X103625000Y-40803450D02*
X103696428Y-40839164D01*
X103696428Y-40839164D02*
X103839285Y-40839164D01*
X103839285Y-40839164D02*
X103910714Y-40803450D01*
X103910714Y-40803450D02*
X103946428Y-40732021D01*
X103946428Y-40732021D02*
X103946428Y-40696307D01*
X103946428Y-40696307D02*
X103910714Y-40624878D01*
X103910714Y-40624878D02*
X103839285Y-40589164D01*
X103839285Y-40589164D02*
X103732143Y-40589164D01*
X103732143Y-40589164D02*
X103660714Y-40553450D01*
X103660714Y-40553450D02*
X103625000Y-40482021D01*
X103625000Y-40482021D02*
X103625000Y-40446307D01*
X103625000Y-40446307D02*
X103660714Y-40374878D01*
X103660714Y-40374878D02*
X103732143Y-40339164D01*
X103732143Y-40339164D02*
X103839285Y-40339164D01*
X103839285Y-40339164D02*
X103910714Y-40374878D01*
X105089286Y-40446307D02*
X105196429Y-40482021D01*
X105196429Y-40482021D02*
X105232143Y-40517735D01*
X105232143Y-40517735D02*
X105267857Y-40589164D01*
X105267857Y-40589164D02*
X105267857Y-40696307D01*
X105267857Y-40696307D02*
X105232143Y-40767735D01*
X105232143Y-40767735D02*
X105196429Y-40803450D01*
X105196429Y-40803450D02*
X105125000Y-40839164D01*
X105125000Y-40839164D02*
X104839286Y-40839164D01*
X104839286Y-40839164D02*
X104839286Y-40089164D01*
X104839286Y-40089164D02*
X105089286Y-40089164D01*
X105089286Y-40089164D02*
X105160715Y-40124878D01*
X105160715Y-40124878D02*
X105196429Y-40160592D01*
X105196429Y-40160592D02*
X105232143Y-40232021D01*
X105232143Y-40232021D02*
X105232143Y-40303450D01*
X105232143Y-40303450D02*
X105196429Y-40374878D01*
X105196429Y-40374878D02*
X105160715Y-40410592D01*
X105160715Y-40410592D02*
X105089286Y-40446307D01*
X105089286Y-40446307D02*
X104839286Y-40446307D01*
X105910715Y-40839164D02*
X105910715Y-40446307D01*
X105910715Y-40446307D02*
X105875000Y-40374878D01*
X105875000Y-40374878D02*
X105803572Y-40339164D01*
X105803572Y-40339164D02*
X105660715Y-40339164D01*
X105660715Y-40339164D02*
X105589286Y-40374878D01*
X105910715Y-40803450D02*
X105839286Y-40839164D01*
X105839286Y-40839164D02*
X105660715Y-40839164D01*
X105660715Y-40839164D02*
X105589286Y-40803450D01*
X105589286Y-40803450D02*
X105553572Y-40732021D01*
X105553572Y-40732021D02*
X105553572Y-40660592D01*
X105553572Y-40660592D02*
X105589286Y-40589164D01*
X105589286Y-40589164D02*
X105660715Y-40553450D01*
X105660715Y-40553450D02*
X105839286Y-40553450D01*
X105839286Y-40553450D02*
X105910715Y-40517735D01*
X106160714Y-40339164D02*
X106446428Y-40339164D01*
X106267857Y-40089164D02*
X106267857Y-40732021D01*
X106267857Y-40732021D02*
X106303571Y-40803450D01*
X106303571Y-40803450D02*
X106375000Y-40839164D01*
X106375000Y-40839164D02*
X106446428Y-40839164D01*
X106589285Y-40339164D02*
X106874999Y-40339164D01*
X106696428Y-40089164D02*
X106696428Y-40732021D01*
X106696428Y-40732021D02*
X106732142Y-40803450D01*
X106732142Y-40803450D02*
X106803571Y-40839164D01*
X106803571Y-40839164D02*
X106874999Y-40839164D01*
X122875595Y-50304819D02*
X122875595Y-51114342D01*
X122875595Y-51114342D02*
X122923214Y-51209580D01*
X122923214Y-51209580D02*
X122970833Y-51257200D01*
X122970833Y-51257200D02*
X123066071Y-51304819D01*
X123066071Y-51304819D02*
X123256547Y-51304819D01*
X123256547Y-51304819D02*
X123351785Y-51257200D01*
X123351785Y-51257200D02*
X123399404Y-51209580D01*
X123399404Y-51209580D02*
X123447023Y-51114342D01*
X123447023Y-51114342D02*
X123447023Y-50304819D01*
X124447023Y-51304819D02*
X123875595Y-51304819D01*
X124161309Y-51304819D02*
X124161309Y-50304819D01*
X124161309Y-50304819D02*
X124066071Y-50447676D01*
X124066071Y-50447676D02*
X123970833Y-50542914D01*
X123970833Y-50542914D02*
X123875595Y-50590533D01*
X121423214Y-46504819D02*
X121423214Y-45504819D01*
X121423214Y-45504819D02*
X121661309Y-45504819D01*
X121661309Y-45504819D02*
X121804166Y-45552438D01*
X121804166Y-45552438D02*
X121899404Y-45647676D01*
X121899404Y-45647676D02*
X121947023Y-45742914D01*
X121947023Y-45742914D02*
X121994642Y-45933390D01*
X121994642Y-45933390D02*
X121994642Y-46076247D01*
X121994642Y-46076247D02*
X121947023Y-46266723D01*
X121947023Y-46266723D02*
X121899404Y-46361961D01*
X121899404Y-46361961D02*
X121804166Y-46457200D01*
X121804166Y-46457200D02*
X121661309Y-46504819D01*
X121661309Y-46504819D02*
X121423214Y-46504819D01*
X122327976Y-45504819D02*
X122566071Y-46504819D01*
X122566071Y-46504819D02*
X122756547Y-45790533D01*
X122756547Y-45790533D02*
X122947023Y-46504819D01*
X122947023Y-46504819D02*
X123185119Y-45504819D01*
X123756547Y-45504819D02*
X123851785Y-45504819D01*
X123851785Y-45504819D02*
X123947023Y-45552438D01*
X123947023Y-45552438D02*
X123994642Y-45600057D01*
X123994642Y-45600057D02*
X124042261Y-45695295D01*
X124042261Y-45695295D02*
X124089880Y-45885771D01*
X124089880Y-45885771D02*
X124089880Y-46123866D01*
X124089880Y-46123866D02*
X124042261Y-46314342D01*
X124042261Y-46314342D02*
X123994642Y-46409580D01*
X123994642Y-46409580D02*
X123947023Y-46457200D01*
X123947023Y-46457200D02*
X123851785Y-46504819D01*
X123851785Y-46504819D02*
X123756547Y-46504819D01*
X123756547Y-46504819D02*
X123661309Y-46457200D01*
X123661309Y-46457200D02*
X123613690Y-46409580D01*
X123613690Y-46409580D02*
X123566071Y-46314342D01*
X123566071Y-46314342D02*
X123518452Y-46123866D01*
X123518452Y-46123866D02*
X123518452Y-45885771D01*
X123518452Y-45885771D02*
X123566071Y-45695295D01*
X123566071Y-45695295D02*
X123613690Y-45600057D01*
X123613690Y-45600057D02*
X123661309Y-45552438D01*
X123661309Y-45552438D02*
X123756547Y-45504819D01*
X125042261Y-46504819D02*
X124470833Y-46504819D01*
X124756547Y-46504819D02*
X124756547Y-45504819D01*
X124756547Y-45504819D02*
X124661309Y-45647676D01*
X124661309Y-45647676D02*
X124566071Y-45742914D01*
X124566071Y-45742914D02*
X124470833Y-45790533D01*
X125423214Y-46219104D02*
X125899404Y-46219104D01*
X125327976Y-46504819D02*
X125661309Y-45504819D01*
X125661309Y-45504819D02*
X125994642Y-46504819D01*
D11*
X120952380Y-55573728D02*
X120904761Y-55549919D01*
X120904761Y-55549919D02*
X120857142Y-55502300D01*
X120857142Y-55502300D02*
X120785714Y-55430871D01*
X120785714Y-55430871D02*
X120738095Y-55407061D01*
X120738095Y-55407061D02*
X120690476Y-55407061D01*
X120714285Y-55526109D02*
X120666666Y-55502300D01*
X120666666Y-55502300D02*
X120619047Y-55454680D01*
X120619047Y-55454680D02*
X120595238Y-55359442D01*
X120595238Y-55359442D02*
X120595238Y-55192776D01*
X120595238Y-55192776D02*
X120619047Y-55097538D01*
X120619047Y-55097538D02*
X120666666Y-55049919D01*
X120666666Y-55049919D02*
X120714285Y-55026109D01*
X120714285Y-55026109D02*
X120809523Y-55026109D01*
X120809523Y-55026109D02*
X120857142Y-55049919D01*
X120857142Y-55049919D02*
X120904761Y-55097538D01*
X120904761Y-55097538D02*
X120928571Y-55192776D01*
X120928571Y-55192776D02*
X120928571Y-55359442D01*
X120928571Y-55359442D02*
X120904761Y-55454680D01*
X120904761Y-55454680D02*
X120857142Y-55502300D01*
X120857142Y-55502300D02*
X120809523Y-55526109D01*
X120809523Y-55526109D02*
X120714285Y-55526109D01*
X121119048Y-55073728D02*
X121142857Y-55049919D01*
X121142857Y-55049919D02*
X121190476Y-55026109D01*
X121190476Y-55026109D02*
X121309524Y-55026109D01*
X121309524Y-55026109D02*
X121357143Y-55049919D01*
X121357143Y-55049919D02*
X121380952Y-55073728D01*
X121380952Y-55073728D02*
X121404762Y-55121347D01*
X121404762Y-55121347D02*
X121404762Y-55168966D01*
X121404762Y-55168966D02*
X121380952Y-55240395D01*
X121380952Y-55240395D02*
X121095238Y-55526109D01*
X121095238Y-55526109D02*
X121404762Y-55526109D01*
X118845239Y-52626109D02*
X118678573Y-52388014D01*
X118559525Y-52626109D02*
X118559525Y-52126109D01*
X118559525Y-52126109D02*
X118750001Y-52126109D01*
X118750001Y-52126109D02*
X118797620Y-52149919D01*
X118797620Y-52149919D02*
X118821430Y-52173728D01*
X118821430Y-52173728D02*
X118845239Y-52221347D01*
X118845239Y-52221347D02*
X118845239Y-52292776D01*
X118845239Y-52292776D02*
X118821430Y-52340395D01*
X118821430Y-52340395D02*
X118797620Y-52364204D01*
X118797620Y-52364204D02*
X118750001Y-52388014D01*
X118750001Y-52388014D02*
X118559525Y-52388014D01*
X119059525Y-52364204D02*
X119226192Y-52364204D01*
X119297620Y-52626109D02*
X119059525Y-52626109D01*
X119059525Y-52626109D02*
X119059525Y-52126109D01*
X119059525Y-52126109D02*
X119297620Y-52126109D01*
X119773811Y-52626109D02*
X119488097Y-52626109D01*
X119630954Y-52626109D02*
X119630954Y-52126109D01*
X119630954Y-52126109D02*
X119583335Y-52197538D01*
X119583335Y-52197538D02*
X119535716Y-52245157D01*
X119535716Y-52245157D02*
X119488097Y-52268966D01*
X120273810Y-52578490D02*
X120250001Y-52602300D01*
X120250001Y-52602300D02*
X120178572Y-52626109D01*
X120178572Y-52626109D02*
X120130953Y-52626109D01*
X120130953Y-52626109D02*
X120059525Y-52602300D01*
X120059525Y-52602300D02*
X120011906Y-52554680D01*
X120011906Y-52554680D02*
X119988096Y-52507061D01*
X119988096Y-52507061D02*
X119964287Y-52411823D01*
X119964287Y-52411823D02*
X119964287Y-52340395D01*
X119964287Y-52340395D02*
X119988096Y-52245157D01*
X119988096Y-52245157D02*
X120011906Y-52197538D01*
X120011906Y-52197538D02*
X120059525Y-52149919D01*
X120059525Y-52149919D02*
X120130953Y-52126109D01*
X120130953Y-52126109D02*
X120178572Y-52126109D01*
X120178572Y-52126109D02*
X120250001Y-52149919D01*
X120250001Y-52149919D02*
X120273810Y-52173728D01*
X120583334Y-52126109D02*
X120630953Y-52126109D01*
X120630953Y-52126109D02*
X120678572Y-52149919D01*
X120678572Y-52149919D02*
X120702382Y-52173728D01*
X120702382Y-52173728D02*
X120726191Y-52221347D01*
X120726191Y-52221347D02*
X120750001Y-52316585D01*
X120750001Y-52316585D02*
X120750001Y-52435633D01*
X120750001Y-52435633D02*
X120726191Y-52530871D01*
X120726191Y-52530871D02*
X120702382Y-52578490D01*
X120702382Y-52578490D02*
X120678572Y-52602300D01*
X120678572Y-52602300D02*
X120630953Y-52626109D01*
X120630953Y-52626109D02*
X120583334Y-52626109D01*
X120583334Y-52626109D02*
X120535715Y-52602300D01*
X120535715Y-52602300D02*
X120511906Y-52578490D01*
X120511906Y-52578490D02*
X120488096Y-52530871D01*
X120488096Y-52530871D02*
X120464287Y-52435633D01*
X120464287Y-52435633D02*
X120464287Y-52316585D01*
X120464287Y-52316585D02*
X120488096Y-52221347D01*
X120488096Y-52221347D02*
X120511906Y-52173728D01*
X120511906Y-52173728D02*
X120535715Y-52149919D01*
X120535715Y-52149919D02*
X120583334Y-52126109D01*
X121059524Y-52126109D02*
X121107143Y-52126109D01*
X121107143Y-52126109D02*
X121154762Y-52149919D01*
X121154762Y-52149919D02*
X121178572Y-52173728D01*
X121178572Y-52173728D02*
X121202381Y-52221347D01*
X121202381Y-52221347D02*
X121226191Y-52316585D01*
X121226191Y-52316585D02*
X121226191Y-52435633D01*
X121226191Y-52435633D02*
X121202381Y-52530871D01*
X121202381Y-52530871D02*
X121178572Y-52578490D01*
X121178572Y-52578490D02*
X121154762Y-52602300D01*
X121154762Y-52602300D02*
X121107143Y-52626109D01*
X121107143Y-52626109D02*
X121059524Y-52626109D01*
X121059524Y-52626109D02*
X121011905Y-52602300D01*
X121011905Y-52602300D02*
X120988096Y-52578490D01*
X120988096Y-52578490D02*
X120964286Y-52530871D01*
X120964286Y-52530871D02*
X120940477Y-52435633D01*
X120940477Y-52435633D02*
X120940477Y-52316585D01*
X120940477Y-52316585D02*
X120964286Y-52221347D01*
X120964286Y-52221347D02*
X120988096Y-52173728D01*
X120988096Y-52173728D02*
X121011905Y-52149919D01*
X121011905Y-52149919D02*
X121059524Y-52126109D01*
X121702381Y-52626109D02*
X121416667Y-52626109D01*
X121559524Y-52626109D02*
X121559524Y-52126109D01*
X121559524Y-52126109D02*
X121511905Y-52197538D01*
X121511905Y-52197538D02*
X121464286Y-52245157D01*
X121464286Y-52245157D02*
X121416667Y-52268966D01*
X121869047Y-52126109D02*
X122202380Y-52126109D01*
X122202380Y-52126109D02*
X121869047Y-52626109D01*
X121869047Y-52626109D02*
X122202380Y-52626109D01*
X122392856Y-52626109D02*
X122392856Y-52126109D01*
X122392856Y-52126109D02*
X122583332Y-52126109D01*
X122583332Y-52126109D02*
X122630951Y-52149919D01*
X122630951Y-52149919D02*
X122654761Y-52173728D01*
X122654761Y-52173728D02*
X122678570Y-52221347D01*
X122678570Y-52221347D02*
X122678570Y-52292776D01*
X122678570Y-52292776D02*
X122654761Y-52340395D01*
X122654761Y-52340395D02*
X122630951Y-52364204D01*
X122630951Y-52364204D02*
X122583332Y-52388014D01*
X122583332Y-52388014D02*
X122392856Y-52388014D01*
X122821428Y-52126109D02*
X123107142Y-52126109D01*
X122964285Y-52626109D02*
X122964285Y-52126109D01*
X123511903Y-52626109D02*
X123273808Y-52626109D01*
X123273808Y-52626109D02*
X123273808Y-52126109D01*
X129156109Y-53583333D02*
X128918014Y-53749999D01*
X129156109Y-53869047D02*
X128656109Y-53869047D01*
X128656109Y-53869047D02*
X128656109Y-53678571D01*
X128656109Y-53678571D02*
X128679919Y-53630952D01*
X128679919Y-53630952D02*
X128703728Y-53607142D01*
X128703728Y-53607142D02*
X128751347Y-53583333D01*
X128751347Y-53583333D02*
X128822776Y-53583333D01*
X128822776Y-53583333D02*
X128870395Y-53607142D01*
X128870395Y-53607142D02*
X128894204Y-53630952D01*
X128894204Y-53630952D02*
X128918014Y-53678571D01*
X128918014Y-53678571D02*
X128918014Y-53869047D01*
X129156109Y-53107142D02*
X129156109Y-53392856D01*
X129156109Y-53249999D02*
X128656109Y-53249999D01*
X128656109Y-53249999D02*
X128727538Y-53297618D01*
X128727538Y-53297618D02*
X128775157Y-53345237D01*
X128775157Y-53345237D02*
X128798966Y-53392856D01*
X126296109Y-53559523D02*
X126296109Y-53845237D01*
X126296109Y-53702380D02*
X125796109Y-53702380D01*
X125796109Y-53702380D02*
X125867538Y-53749999D01*
X125867538Y-53749999D02*
X125915157Y-53797618D01*
X125915157Y-53797618D02*
X125938966Y-53845237D01*
X126296109Y-53345238D02*
X125796109Y-53345238D01*
X126105633Y-53297619D02*
X126296109Y-53154762D01*
X125962776Y-53154762D02*
X126153252Y-53345238D01*
X118108490Y-48583333D02*
X118132300Y-48607142D01*
X118132300Y-48607142D02*
X118156109Y-48678571D01*
X118156109Y-48678571D02*
X118156109Y-48726190D01*
X118156109Y-48726190D02*
X118132300Y-48797618D01*
X118132300Y-48797618D02*
X118084680Y-48845237D01*
X118084680Y-48845237D02*
X118037061Y-48869047D01*
X118037061Y-48869047D02*
X117941823Y-48892856D01*
X117941823Y-48892856D02*
X117870395Y-48892856D01*
X117870395Y-48892856D02*
X117775157Y-48869047D01*
X117775157Y-48869047D02*
X117727538Y-48845237D01*
X117727538Y-48845237D02*
X117679919Y-48797618D01*
X117679919Y-48797618D02*
X117656109Y-48726190D01*
X117656109Y-48726190D02*
X117656109Y-48678571D01*
X117656109Y-48678571D02*
X117679919Y-48607142D01*
X117679919Y-48607142D02*
X117703728Y-48583333D01*
X118156109Y-48107142D02*
X118156109Y-48392856D01*
X118156109Y-48249999D02*
X117656109Y-48249999D01*
X117656109Y-48249999D02*
X117727538Y-48297618D01*
X117727538Y-48297618D02*
X117775157Y-48345237D01*
X117775157Y-48345237D02*
X117798966Y-48392856D01*
X114796109Y-49321427D02*
X114796109Y-49273808D01*
X114796109Y-49273808D02*
X114819919Y-49226189D01*
X114819919Y-49226189D02*
X114843728Y-49202379D01*
X114843728Y-49202379D02*
X114891347Y-49178570D01*
X114891347Y-49178570D02*
X114986585Y-49154760D01*
X114986585Y-49154760D02*
X115105633Y-49154760D01*
X115105633Y-49154760D02*
X115200871Y-49178570D01*
X115200871Y-49178570D02*
X115248490Y-49202379D01*
X115248490Y-49202379D02*
X115272300Y-49226189D01*
X115272300Y-49226189D02*
X115296109Y-49273808D01*
X115296109Y-49273808D02*
X115296109Y-49321427D01*
X115296109Y-49321427D02*
X115272300Y-49369046D01*
X115272300Y-49369046D02*
X115248490Y-49392855D01*
X115248490Y-49392855D02*
X115200871Y-49416665D01*
X115200871Y-49416665D02*
X115105633Y-49440474D01*
X115105633Y-49440474D02*
X114986585Y-49440474D01*
X114986585Y-49440474D02*
X114891347Y-49416665D01*
X114891347Y-49416665D02*
X114843728Y-49392855D01*
X114843728Y-49392855D02*
X114819919Y-49369046D01*
X114819919Y-49369046D02*
X114796109Y-49321427D01*
X115248490Y-48940475D02*
X115272300Y-48916665D01*
X115272300Y-48916665D02*
X115296109Y-48940475D01*
X115296109Y-48940475D02*
X115272300Y-48964284D01*
X115272300Y-48964284D02*
X115248490Y-48940475D01*
X115248490Y-48940475D02*
X115296109Y-48940475D01*
X115296109Y-48440475D02*
X115296109Y-48726189D01*
X115296109Y-48583332D02*
X114796109Y-48583332D01*
X114796109Y-48583332D02*
X114867538Y-48630951D01*
X114867538Y-48630951D02*
X114915157Y-48678570D01*
X114915157Y-48678570D02*
X114938966Y-48726189D01*
X114962776Y-48011904D02*
X115296109Y-48011904D01*
X114962776Y-48226190D02*
X115224680Y-48226190D01*
X115224680Y-48226190D02*
X115272300Y-48202380D01*
X115272300Y-48202380D02*
X115296109Y-48154761D01*
X115296109Y-48154761D02*
X115296109Y-48083333D01*
X115296109Y-48083333D02*
X115272300Y-48035714D01*
X115272300Y-48035714D02*
X115248490Y-48011904D01*
X115034204Y-47607142D02*
X115034204Y-47773809D01*
X115296109Y-47773809D02*
X114796109Y-47773809D01*
X114796109Y-47773809D02*
X114796109Y-47535714D01*
D10*
X128732143Y-40839164D02*
X128732143Y-40089164D01*
X128732143Y-40089164D02*
X129017857Y-40089164D01*
X129017857Y-40089164D02*
X129089286Y-40124878D01*
X129089286Y-40124878D02*
X129125000Y-40160592D01*
X129125000Y-40160592D02*
X129160714Y-40232021D01*
X129160714Y-40232021D02*
X129160714Y-40339164D01*
X129160714Y-40339164D02*
X129125000Y-40410592D01*
X129125000Y-40410592D02*
X129089286Y-40446307D01*
X129089286Y-40446307D02*
X129017857Y-40482021D01*
X129017857Y-40482021D02*
X128732143Y-40482021D01*
X129625000Y-40089164D02*
X129767857Y-40089164D01*
X129767857Y-40089164D02*
X129839286Y-40124878D01*
X129839286Y-40124878D02*
X129910714Y-40196307D01*
X129910714Y-40196307D02*
X129946429Y-40339164D01*
X129946429Y-40339164D02*
X129946429Y-40589164D01*
X129946429Y-40589164D02*
X129910714Y-40732021D01*
X129910714Y-40732021D02*
X129839286Y-40803450D01*
X129839286Y-40803450D02*
X129767857Y-40839164D01*
X129767857Y-40839164D02*
X129625000Y-40839164D01*
X129625000Y-40839164D02*
X129553572Y-40803450D01*
X129553572Y-40803450D02*
X129482143Y-40732021D01*
X129482143Y-40732021D02*
X129446429Y-40589164D01*
X129446429Y-40589164D02*
X129446429Y-40339164D01*
X129446429Y-40339164D02*
X129482143Y-40196307D01*
X129482143Y-40196307D02*
X129553572Y-40124878D01*
X129553572Y-40124878D02*
X129625000Y-40089164D01*
X130232143Y-40803450D02*
X130339286Y-40839164D01*
X130339286Y-40839164D02*
X130517857Y-40839164D01*
X130517857Y-40839164D02*
X130589286Y-40803450D01*
X130589286Y-40803450D02*
X130625000Y-40767735D01*
X130625000Y-40767735D02*
X130660714Y-40696307D01*
X130660714Y-40696307D02*
X130660714Y-40624878D01*
X130660714Y-40624878D02*
X130625000Y-40553450D01*
X130625000Y-40553450D02*
X130589286Y-40517735D01*
X130589286Y-40517735D02*
X130517857Y-40482021D01*
X130517857Y-40482021D02*
X130375000Y-40446307D01*
X130375000Y-40446307D02*
X130303571Y-40410592D01*
X130303571Y-40410592D02*
X130267857Y-40374878D01*
X130267857Y-40374878D02*
X130232143Y-40303450D01*
X130232143Y-40303450D02*
X130232143Y-40232021D01*
X130232143Y-40232021D02*
X130267857Y-40160592D01*
X130267857Y-40160592D02*
X130303571Y-40124878D01*
X130303571Y-40124878D02*
X130375000Y-40089164D01*
X130375000Y-40089164D02*
X130553571Y-40089164D01*
X130553571Y-40089164D02*
X130660714Y-40124878D01*
X131553572Y-40839164D02*
X131553572Y-40089164D01*
X131910715Y-40839164D02*
X131910715Y-40089164D01*
X131910715Y-40089164D02*
X132339286Y-40839164D01*
X132339286Y-40839164D02*
X132339286Y-40089164D01*
X133232143Y-40053450D02*
X132589286Y-41017735D01*
X133625000Y-40089164D02*
X133767857Y-40089164D01*
X133767857Y-40089164D02*
X133839286Y-40124878D01*
X133839286Y-40124878D02*
X133910714Y-40196307D01*
X133910714Y-40196307D02*
X133946429Y-40339164D01*
X133946429Y-40339164D02*
X133946429Y-40589164D01*
X133946429Y-40589164D02*
X133910714Y-40732021D01*
X133910714Y-40732021D02*
X133839286Y-40803450D01*
X133839286Y-40803450D02*
X133767857Y-40839164D01*
X133767857Y-40839164D02*
X133625000Y-40839164D01*
X133625000Y-40839164D02*
X133553572Y-40803450D01*
X133553572Y-40803450D02*
X133482143Y-40732021D01*
X133482143Y-40732021D02*
X133446429Y-40589164D01*
X133446429Y-40589164D02*
X133446429Y-40339164D01*
X133446429Y-40339164D02*
X133482143Y-40196307D01*
X133482143Y-40196307D02*
X133553572Y-40124878D01*
X133553572Y-40124878D02*
X133625000Y-40089164D01*
X134267857Y-40089164D02*
X134267857Y-40696307D01*
X134267857Y-40696307D02*
X134303571Y-40767735D01*
X134303571Y-40767735D02*
X134339286Y-40803450D01*
X134339286Y-40803450D02*
X134410714Y-40839164D01*
X134410714Y-40839164D02*
X134553571Y-40839164D01*
X134553571Y-40839164D02*
X134625000Y-40803450D01*
X134625000Y-40803450D02*
X134660714Y-40767735D01*
X134660714Y-40767735D02*
X134696428Y-40696307D01*
X134696428Y-40696307D02*
X134696428Y-40089164D01*
X134946428Y-40089164D02*
X135375000Y-40089164D01*
X135160714Y-40839164D02*
X135160714Y-40089164D01*
X102142858Y-59719164D02*
X102142858Y-58969164D01*
X102142858Y-58969164D02*
X102571429Y-59719164D01*
X102571429Y-59719164D02*
X102571429Y-58969164D01*
X102928572Y-59326307D02*
X103178572Y-59326307D01*
X103285715Y-59719164D02*
X102928572Y-59719164D01*
X102928572Y-59719164D02*
X102928572Y-58969164D01*
X102928572Y-58969164D02*
X103285715Y-58969164D01*
X104000000Y-59004878D02*
X103928572Y-58969164D01*
X103928572Y-58969164D02*
X103821429Y-58969164D01*
X103821429Y-58969164D02*
X103714286Y-59004878D01*
X103714286Y-59004878D02*
X103642857Y-59076307D01*
X103642857Y-59076307D02*
X103607143Y-59147735D01*
X103607143Y-59147735D02*
X103571429Y-59290592D01*
X103571429Y-59290592D02*
X103571429Y-59397735D01*
X103571429Y-59397735D02*
X103607143Y-59540592D01*
X103607143Y-59540592D02*
X103642857Y-59612021D01*
X103642857Y-59612021D02*
X103714286Y-59683450D01*
X103714286Y-59683450D02*
X103821429Y-59719164D01*
X103821429Y-59719164D02*
X103892857Y-59719164D01*
X103892857Y-59719164D02*
X104000000Y-59683450D01*
X104000000Y-59683450D02*
X104035714Y-59647735D01*
X104035714Y-59647735D02*
X104035714Y-59397735D01*
X104035714Y-59397735D02*
X103892857Y-59397735D01*
X105178572Y-59326307D02*
X105285715Y-59362021D01*
X105285715Y-59362021D02*
X105321429Y-59397735D01*
X105321429Y-59397735D02*
X105357143Y-59469164D01*
X105357143Y-59469164D02*
X105357143Y-59576307D01*
X105357143Y-59576307D02*
X105321429Y-59647735D01*
X105321429Y-59647735D02*
X105285715Y-59683450D01*
X105285715Y-59683450D02*
X105214286Y-59719164D01*
X105214286Y-59719164D02*
X104928572Y-59719164D01*
X104928572Y-59719164D02*
X104928572Y-58969164D01*
X104928572Y-58969164D02*
X105178572Y-58969164D01*
X105178572Y-58969164D02*
X105250001Y-59004878D01*
X105250001Y-59004878D02*
X105285715Y-59040592D01*
X105285715Y-59040592D02*
X105321429Y-59112021D01*
X105321429Y-59112021D02*
X105321429Y-59183450D01*
X105321429Y-59183450D02*
X105285715Y-59254878D01*
X105285715Y-59254878D02*
X105250001Y-59290592D01*
X105250001Y-59290592D02*
X105178572Y-59326307D01*
X105178572Y-59326307D02*
X104928572Y-59326307D01*
X106000001Y-59719164D02*
X106000001Y-59326307D01*
X106000001Y-59326307D02*
X105964286Y-59254878D01*
X105964286Y-59254878D02*
X105892858Y-59219164D01*
X105892858Y-59219164D02*
X105750001Y-59219164D01*
X105750001Y-59219164D02*
X105678572Y-59254878D01*
X106000001Y-59683450D02*
X105928572Y-59719164D01*
X105928572Y-59719164D02*
X105750001Y-59719164D01*
X105750001Y-59719164D02*
X105678572Y-59683450D01*
X105678572Y-59683450D02*
X105642858Y-59612021D01*
X105642858Y-59612021D02*
X105642858Y-59540592D01*
X105642858Y-59540592D02*
X105678572Y-59469164D01*
X105678572Y-59469164D02*
X105750001Y-59433450D01*
X105750001Y-59433450D02*
X105928572Y-59433450D01*
X105928572Y-59433450D02*
X106000001Y-59397735D01*
X106250000Y-59219164D02*
X106535714Y-59219164D01*
X106357143Y-58969164D02*
X106357143Y-59612021D01*
X106357143Y-59612021D02*
X106392857Y-59683450D01*
X106392857Y-59683450D02*
X106464286Y-59719164D01*
X106464286Y-59719164D02*
X106535714Y-59719164D01*
X106678571Y-59219164D02*
X106964285Y-59219164D01*
X106785714Y-58969164D02*
X106785714Y-59612021D01*
X106785714Y-59612021D02*
X106821428Y-59683450D01*
X106821428Y-59683450D02*
X106892857Y-59719164D01*
X106892857Y-59719164D02*
X106964285Y-59719164D01*
X128750000Y-59719164D02*
X128750000Y-58969164D01*
X128750000Y-58969164D02*
X129178571Y-59719164D01*
X129178571Y-59719164D02*
X129178571Y-58969164D01*
X129535714Y-59326307D02*
X129785714Y-59326307D01*
X129892857Y-59719164D02*
X129535714Y-59719164D01*
X129535714Y-59719164D02*
X129535714Y-58969164D01*
X129535714Y-58969164D02*
X129892857Y-58969164D01*
X130607142Y-59004878D02*
X130535714Y-58969164D01*
X130535714Y-58969164D02*
X130428571Y-58969164D01*
X130428571Y-58969164D02*
X130321428Y-59004878D01*
X130321428Y-59004878D02*
X130249999Y-59076307D01*
X130249999Y-59076307D02*
X130214285Y-59147735D01*
X130214285Y-59147735D02*
X130178571Y-59290592D01*
X130178571Y-59290592D02*
X130178571Y-59397735D01*
X130178571Y-59397735D02*
X130214285Y-59540592D01*
X130214285Y-59540592D02*
X130249999Y-59612021D01*
X130249999Y-59612021D02*
X130321428Y-59683450D01*
X130321428Y-59683450D02*
X130428571Y-59719164D01*
X130428571Y-59719164D02*
X130499999Y-59719164D01*
X130499999Y-59719164D02*
X130607142Y-59683450D01*
X130607142Y-59683450D02*
X130642856Y-59647735D01*
X130642856Y-59647735D02*
X130642856Y-59397735D01*
X130642856Y-59397735D02*
X130499999Y-59397735D01*
X131535714Y-59719164D02*
X131535714Y-58969164D01*
X131892857Y-59719164D02*
X131892857Y-58969164D01*
X131892857Y-58969164D02*
X132321428Y-59719164D01*
X132321428Y-59719164D02*
X132321428Y-58969164D01*
X133214285Y-58933450D02*
X132571428Y-59897735D01*
X133607142Y-58969164D02*
X133749999Y-58969164D01*
X133749999Y-58969164D02*
X133821428Y-59004878D01*
X133821428Y-59004878D02*
X133892856Y-59076307D01*
X133892856Y-59076307D02*
X133928571Y-59219164D01*
X133928571Y-59219164D02*
X133928571Y-59469164D01*
X133928571Y-59469164D02*
X133892856Y-59612021D01*
X133892856Y-59612021D02*
X133821428Y-59683450D01*
X133821428Y-59683450D02*
X133749999Y-59719164D01*
X133749999Y-59719164D02*
X133607142Y-59719164D01*
X133607142Y-59719164D02*
X133535714Y-59683450D01*
X133535714Y-59683450D02*
X133464285Y-59612021D01*
X133464285Y-59612021D02*
X133428571Y-59469164D01*
X133428571Y-59469164D02*
X133428571Y-59219164D01*
X133428571Y-59219164D02*
X133464285Y-59076307D01*
X133464285Y-59076307D02*
X133535714Y-59004878D01*
X133535714Y-59004878D02*
X133607142Y-58969164D01*
X134249999Y-58969164D02*
X134249999Y-59576307D01*
X134249999Y-59576307D02*
X134285713Y-59647735D01*
X134285713Y-59647735D02*
X134321428Y-59683450D01*
X134321428Y-59683450D02*
X134392856Y-59719164D01*
X134392856Y-59719164D02*
X134535713Y-59719164D01*
X134535713Y-59719164D02*
X134607142Y-59683450D01*
X134607142Y-59683450D02*
X134642856Y-59647735D01*
X134642856Y-59647735D02*
X134678570Y-59576307D01*
X134678570Y-59576307D02*
X134678570Y-58969164D01*
X134928570Y-58969164D02*
X135357142Y-58969164D01*
X135142856Y-59719164D02*
X135142856Y-58969164D01*
D11*
X117948609Y-44083333D02*
X117710514Y-44249999D01*
X117948609Y-44369047D02*
X117448609Y-44369047D01*
X117448609Y-44369047D02*
X117448609Y-44178571D01*
X117448609Y-44178571D02*
X117472419Y-44130952D01*
X117472419Y-44130952D02*
X117496228Y-44107142D01*
X117496228Y-44107142D02*
X117543847Y-44083333D01*
X117543847Y-44083333D02*
X117615276Y-44083333D01*
X117615276Y-44083333D02*
X117662895Y-44107142D01*
X117662895Y-44107142D02*
X117686704Y-44130952D01*
X117686704Y-44130952D02*
X117710514Y-44178571D01*
X117710514Y-44178571D02*
X117710514Y-44369047D01*
X117496228Y-43892856D02*
X117472419Y-43869047D01*
X117472419Y-43869047D02*
X117448609Y-43821428D01*
X117448609Y-43821428D02*
X117448609Y-43702380D01*
X117448609Y-43702380D02*
X117472419Y-43654761D01*
X117472419Y-43654761D02*
X117496228Y-43630952D01*
X117496228Y-43630952D02*
X117543847Y-43607142D01*
X117543847Y-43607142D02*
X117591466Y-43607142D01*
X117591466Y-43607142D02*
X117662895Y-43630952D01*
X117662895Y-43630952D02*
X117948609Y-43916666D01*
X117948609Y-43916666D02*
X117948609Y-43607142D01*
X115088609Y-44333332D02*
X115088609Y-44619046D01*
X115088609Y-44476189D02*
X114588609Y-44476189D01*
X114588609Y-44476189D02*
X114660038Y-44523808D01*
X114660038Y-44523808D02*
X114707657Y-44571427D01*
X114707657Y-44571427D02*
X114731466Y-44619046D01*
X114588609Y-44023809D02*
X114588609Y-43976190D01*
X114588609Y-43976190D02*
X114612419Y-43928571D01*
X114612419Y-43928571D02*
X114636228Y-43904761D01*
X114636228Y-43904761D02*
X114683847Y-43880952D01*
X114683847Y-43880952D02*
X114779085Y-43857142D01*
X114779085Y-43857142D02*
X114898133Y-43857142D01*
X114898133Y-43857142D02*
X114993371Y-43880952D01*
X114993371Y-43880952D02*
X115040990Y-43904761D01*
X115040990Y-43904761D02*
X115064800Y-43928571D01*
X115064800Y-43928571D02*
X115088609Y-43976190D01*
X115088609Y-43976190D02*
X115088609Y-44023809D01*
X115088609Y-44023809D02*
X115064800Y-44071428D01*
X115064800Y-44071428D02*
X115040990Y-44095237D01*
X115040990Y-44095237D02*
X114993371Y-44119047D01*
X114993371Y-44119047D02*
X114898133Y-44142856D01*
X114898133Y-44142856D02*
X114779085Y-44142856D01*
X114779085Y-44142856D02*
X114683847Y-44119047D01*
X114683847Y-44119047D02*
X114636228Y-44095237D01*
X114636228Y-44095237D02*
X114612419Y-44071428D01*
X114612419Y-44071428D02*
X114588609Y-44023809D01*
X114588609Y-43547619D02*
X114588609Y-43500000D01*
X114588609Y-43500000D02*
X114612419Y-43452381D01*
X114612419Y-43452381D02*
X114636228Y-43428571D01*
X114636228Y-43428571D02*
X114683847Y-43404762D01*
X114683847Y-43404762D02*
X114779085Y-43380952D01*
X114779085Y-43380952D02*
X114898133Y-43380952D01*
X114898133Y-43380952D02*
X114993371Y-43404762D01*
X114993371Y-43404762D02*
X115040990Y-43428571D01*
X115040990Y-43428571D02*
X115064800Y-43452381D01*
X115064800Y-43452381D02*
X115088609Y-43500000D01*
X115088609Y-43500000D02*
X115088609Y-43547619D01*
X115088609Y-43547619D02*
X115064800Y-43595238D01*
X115064800Y-43595238D02*
X115040990Y-43619047D01*
X115040990Y-43619047D02*
X114993371Y-43642857D01*
X114993371Y-43642857D02*
X114898133Y-43666666D01*
X114898133Y-43666666D02*
X114779085Y-43666666D01*
X114779085Y-43666666D02*
X114683847Y-43642857D01*
X114683847Y-43642857D02*
X114636228Y-43619047D01*
X114636228Y-43619047D02*
X114612419Y-43595238D01*
X114612419Y-43595238D02*
X114588609Y-43547619D01*
X114452380Y-55573728D02*
X114404761Y-55549919D01*
X114404761Y-55549919D02*
X114357142Y-55502300D01*
X114357142Y-55502300D02*
X114285714Y-55430871D01*
X114285714Y-55430871D02*
X114238095Y-55407061D01*
X114238095Y-55407061D02*
X114190476Y-55407061D01*
X114214285Y-55526109D02*
X114166666Y-55502300D01*
X114166666Y-55502300D02*
X114119047Y-55454680D01*
X114119047Y-55454680D02*
X114095238Y-55359442D01*
X114095238Y-55359442D02*
X114095238Y-55192776D01*
X114095238Y-55192776D02*
X114119047Y-55097538D01*
X114119047Y-55097538D02*
X114166666Y-55049919D01*
X114166666Y-55049919D02*
X114214285Y-55026109D01*
X114214285Y-55026109D02*
X114309523Y-55026109D01*
X114309523Y-55026109D02*
X114357142Y-55049919D01*
X114357142Y-55049919D02*
X114404761Y-55097538D01*
X114404761Y-55097538D02*
X114428571Y-55192776D01*
X114428571Y-55192776D02*
X114428571Y-55359442D01*
X114428571Y-55359442D02*
X114404761Y-55454680D01*
X114404761Y-55454680D02*
X114357142Y-55502300D01*
X114357142Y-55502300D02*
X114309523Y-55526109D01*
X114309523Y-55526109D02*
X114214285Y-55526109D01*
X114904762Y-55526109D02*
X114619048Y-55526109D01*
X114761905Y-55526109D02*
X114761905Y-55026109D01*
X114761905Y-55026109D02*
X114714286Y-55097538D01*
X114714286Y-55097538D02*
X114666667Y-55145157D01*
X114666667Y-55145157D02*
X114619048Y-55168966D01*
X112059524Y-52626109D02*
X111892858Y-52388014D01*
X111773810Y-52626109D02*
X111773810Y-52126109D01*
X111773810Y-52126109D02*
X111964286Y-52126109D01*
X111964286Y-52126109D02*
X112011905Y-52149919D01*
X112011905Y-52149919D02*
X112035715Y-52173728D01*
X112035715Y-52173728D02*
X112059524Y-52221347D01*
X112059524Y-52221347D02*
X112059524Y-52292776D01*
X112059524Y-52292776D02*
X112035715Y-52340395D01*
X112035715Y-52340395D02*
X112011905Y-52364204D01*
X112011905Y-52364204D02*
X111964286Y-52388014D01*
X111964286Y-52388014D02*
X111773810Y-52388014D01*
X112273810Y-52364204D02*
X112440477Y-52364204D01*
X112511905Y-52626109D02*
X112273810Y-52626109D01*
X112273810Y-52626109D02*
X112273810Y-52126109D01*
X112273810Y-52126109D02*
X112511905Y-52126109D01*
X112988096Y-52626109D02*
X112702382Y-52626109D01*
X112845239Y-52626109D02*
X112845239Y-52126109D01*
X112845239Y-52126109D02*
X112797620Y-52197538D01*
X112797620Y-52197538D02*
X112750001Y-52245157D01*
X112750001Y-52245157D02*
X112702382Y-52268966D01*
X113488095Y-52578490D02*
X113464286Y-52602300D01*
X113464286Y-52602300D02*
X113392857Y-52626109D01*
X113392857Y-52626109D02*
X113345238Y-52626109D01*
X113345238Y-52626109D02*
X113273810Y-52602300D01*
X113273810Y-52602300D02*
X113226191Y-52554680D01*
X113226191Y-52554680D02*
X113202381Y-52507061D01*
X113202381Y-52507061D02*
X113178572Y-52411823D01*
X113178572Y-52411823D02*
X113178572Y-52340395D01*
X113178572Y-52340395D02*
X113202381Y-52245157D01*
X113202381Y-52245157D02*
X113226191Y-52197538D01*
X113226191Y-52197538D02*
X113273810Y-52149919D01*
X113273810Y-52149919D02*
X113345238Y-52126109D01*
X113345238Y-52126109D02*
X113392857Y-52126109D01*
X113392857Y-52126109D02*
X113464286Y-52149919D01*
X113464286Y-52149919D02*
X113488095Y-52173728D01*
X113797619Y-52126109D02*
X113845238Y-52126109D01*
X113845238Y-52126109D02*
X113892857Y-52149919D01*
X113892857Y-52149919D02*
X113916667Y-52173728D01*
X113916667Y-52173728D02*
X113940476Y-52221347D01*
X113940476Y-52221347D02*
X113964286Y-52316585D01*
X113964286Y-52316585D02*
X113964286Y-52435633D01*
X113964286Y-52435633D02*
X113940476Y-52530871D01*
X113940476Y-52530871D02*
X113916667Y-52578490D01*
X113916667Y-52578490D02*
X113892857Y-52602300D01*
X113892857Y-52602300D02*
X113845238Y-52626109D01*
X113845238Y-52626109D02*
X113797619Y-52626109D01*
X113797619Y-52626109D02*
X113750000Y-52602300D01*
X113750000Y-52602300D02*
X113726191Y-52578490D01*
X113726191Y-52578490D02*
X113702381Y-52530871D01*
X113702381Y-52530871D02*
X113678572Y-52435633D01*
X113678572Y-52435633D02*
X113678572Y-52316585D01*
X113678572Y-52316585D02*
X113702381Y-52221347D01*
X113702381Y-52221347D02*
X113726191Y-52173728D01*
X113726191Y-52173728D02*
X113750000Y-52149919D01*
X113750000Y-52149919D02*
X113797619Y-52126109D01*
X114273809Y-52126109D02*
X114321428Y-52126109D01*
X114321428Y-52126109D02*
X114369047Y-52149919D01*
X114369047Y-52149919D02*
X114392857Y-52173728D01*
X114392857Y-52173728D02*
X114416666Y-52221347D01*
X114416666Y-52221347D02*
X114440476Y-52316585D01*
X114440476Y-52316585D02*
X114440476Y-52435633D01*
X114440476Y-52435633D02*
X114416666Y-52530871D01*
X114416666Y-52530871D02*
X114392857Y-52578490D01*
X114392857Y-52578490D02*
X114369047Y-52602300D01*
X114369047Y-52602300D02*
X114321428Y-52626109D01*
X114321428Y-52626109D02*
X114273809Y-52626109D01*
X114273809Y-52626109D02*
X114226190Y-52602300D01*
X114226190Y-52602300D02*
X114202381Y-52578490D01*
X114202381Y-52578490D02*
X114178571Y-52530871D01*
X114178571Y-52530871D02*
X114154762Y-52435633D01*
X114154762Y-52435633D02*
X114154762Y-52316585D01*
X114154762Y-52316585D02*
X114178571Y-52221347D01*
X114178571Y-52221347D02*
X114202381Y-52173728D01*
X114202381Y-52173728D02*
X114226190Y-52149919D01*
X114226190Y-52149919D02*
X114273809Y-52126109D01*
X114630952Y-52173728D02*
X114654761Y-52149919D01*
X114654761Y-52149919D02*
X114702380Y-52126109D01*
X114702380Y-52126109D02*
X114821428Y-52126109D01*
X114821428Y-52126109D02*
X114869047Y-52149919D01*
X114869047Y-52149919D02*
X114892856Y-52173728D01*
X114892856Y-52173728D02*
X114916666Y-52221347D01*
X114916666Y-52221347D02*
X114916666Y-52268966D01*
X114916666Y-52268966D02*
X114892856Y-52340395D01*
X114892856Y-52340395D02*
X114607142Y-52626109D01*
X114607142Y-52626109D02*
X114916666Y-52626109D01*
X115130951Y-52126109D02*
X115130951Y-52530871D01*
X115130951Y-52530871D02*
X115154761Y-52578490D01*
X115154761Y-52578490D02*
X115178570Y-52602300D01*
X115178570Y-52602300D02*
X115226189Y-52626109D01*
X115226189Y-52626109D02*
X115321427Y-52626109D01*
X115321427Y-52626109D02*
X115369046Y-52602300D01*
X115369046Y-52602300D02*
X115392856Y-52578490D01*
X115392856Y-52578490D02*
X115416665Y-52530871D01*
X115416665Y-52530871D02*
X115416665Y-52126109D01*
X115654761Y-52626109D02*
X115654761Y-52126109D01*
X115654761Y-52126109D02*
X115940475Y-52626109D01*
X115940475Y-52626109D02*
X115940475Y-52126109D01*
X116107143Y-52126109D02*
X116392857Y-52126109D01*
X116250000Y-52626109D02*
X116250000Y-52126109D01*
X116845237Y-52578490D02*
X116821428Y-52602300D01*
X116821428Y-52602300D02*
X116749999Y-52626109D01*
X116749999Y-52626109D02*
X116702380Y-52626109D01*
X116702380Y-52626109D02*
X116630952Y-52602300D01*
X116630952Y-52602300D02*
X116583333Y-52554680D01*
X116583333Y-52554680D02*
X116559523Y-52507061D01*
X116559523Y-52507061D02*
X116535714Y-52411823D01*
X116535714Y-52411823D02*
X116535714Y-52340395D01*
X116535714Y-52340395D02*
X116559523Y-52245157D01*
X116559523Y-52245157D02*
X116583333Y-52197538D01*
X116583333Y-52197538D02*
X116630952Y-52149919D01*
X116630952Y-52149919D02*
X116702380Y-52126109D01*
X116702380Y-52126109D02*
X116749999Y-52126109D01*
X116749999Y-52126109D02*
X116821428Y-52149919D01*
X116821428Y-52149919D02*
X116845237Y-52173728D01*
X117297618Y-52626109D02*
X117059523Y-52626109D01*
X117059523Y-52626109D02*
X117059523Y-52126109D01*
D12*
%TO.C,J1*%
X103120000Y-41620000D02*
X104500000Y-41620000D01*
X103120000Y-43000000D02*
X103120000Y-41620000D01*
X103120000Y-44270000D02*
X103120000Y-44380000D01*
X103120000Y-44270000D02*
X105880000Y-44270000D01*
X103120000Y-44380000D02*
X105880000Y-44380000D01*
X105880000Y-44270000D02*
X105880000Y-44380000D01*
%TO.C,U1*%
X122727500Y-46890000D02*
X124547500Y-46890000D01*
X122727500Y-46940000D02*
X122727500Y-46890000D01*
X122727500Y-50010000D02*
X122727500Y-49960000D01*
X124547500Y-46890000D02*
X124547500Y-46940000D01*
X124547500Y-49960000D02*
X124547500Y-50010000D01*
X124547500Y-50010000D02*
X122727500Y-50010000D01*
X125327500Y-50290000D02*
X124847500Y-50290000D01*
X125087500Y-49960000D01*
X125327500Y-50290000D01*
G36*
X125327500Y-50290000D02*
G01*
X124847500Y-50290000D01*
X125087500Y-49960000D01*
X125327500Y-50290000D01*
G37*
D13*
%TO.C,Q2*%
X120275000Y-54225000D02*
X120275000Y-53875000D01*
X120575000Y-54225000D02*
X120275000Y-54225000D01*
X121075000Y-53525000D02*
X120925000Y-53525000D01*
X121725000Y-53875000D02*
X121725000Y-54225000D01*
X121725000Y-54225000D02*
X121425000Y-54225000D01*
D12*
%TO.C,R1*%
X126977500Y-53262742D02*
X126977500Y-53737258D01*
X128022500Y-53262742D02*
X128022500Y-53737258D01*
%TO.C,C1*%
X115990000Y-48359420D02*
X115990000Y-48640580D01*
X117010000Y-48359420D02*
X117010000Y-48640580D01*
%TO.C,J3*%
X131620000Y-41620000D02*
X133000000Y-41620000D01*
X131620000Y-43000000D02*
X131620000Y-41620000D01*
X131620000Y-44270000D02*
X131620000Y-44380000D01*
X131620000Y-44270000D02*
X134380000Y-44270000D01*
X131620000Y-44380000D02*
X134380000Y-44380000D01*
X134380000Y-44270000D02*
X134380000Y-44380000D01*
%TO.C,J2*%
X102620000Y-55620000D02*
X104000000Y-55620000D01*
X102620000Y-57000000D02*
X102620000Y-55620000D01*
X102620000Y-58270000D02*
X102620000Y-58380000D01*
X102620000Y-58270000D02*
X105380000Y-58270000D01*
X102620000Y-58380000D02*
X105380000Y-58380000D01*
X105380000Y-58270000D02*
X105380000Y-58380000D01*
%TO.C,J4*%
X131620000Y-55620000D02*
X133000000Y-55620000D01*
X131620000Y-57000000D02*
X131620000Y-55620000D01*
X131620000Y-58270000D02*
X131620000Y-58380000D01*
X131620000Y-58270000D02*
X134380000Y-58270000D01*
X131620000Y-58380000D02*
X134380000Y-58380000D01*
X134380000Y-58270000D02*
X134380000Y-58380000D01*
%TO.C,R2*%
X115770000Y-43762742D02*
X115770000Y-44237258D01*
X116815000Y-43762742D02*
X116815000Y-44237258D01*
D13*
%TO.C,Q1*%
X113775000Y-54225000D02*
X113775000Y-53875000D01*
X114075000Y-54225000D02*
X113775000Y-54225000D01*
X114575000Y-53525000D02*
X114425000Y-53525000D01*
X115225000Y-53875000D02*
X115225000Y-54225000D01*
X115225000Y-54225000D02*
X114925000Y-54225000D01*
%TD*%
D14*
%TO.P,J1,1*%
%TO.N,Net-(J1-Pad1)*%
X104500000Y-43000000D03*
%TD*%
%TO.P,J3,1*%
%TO.N,Net-(J1-Pad1)*%
X133000000Y-43000000D03*
%TD*%
%TO.P,J2,1*%
%TO.N,Net-(Q1-S)*%
X104000000Y-57000000D03*
%TD*%
%TO.P,J4,1*%
%TO.N,Net-(Q2-D)*%
X133000000Y-57000000D03*
%TD*%
%TA.AperFunction,NonConductor*%
G36*
X135442539Y-40020185D02*
G01*
X135488294Y-40072989D01*
X135499500Y-40124500D01*
X135499500Y-59375500D01*
X135479815Y-59442539D01*
X135427011Y-59488294D01*
X135375500Y-59499500D01*
X102124500Y-59499500D01*
X102057461Y-59479815D01*
X102011706Y-59427011D01*
X102000500Y-59375500D01*
X102000500Y-56102135D01*
X102649500Y-56102135D01*
X102649500Y-57897870D01*
X102649501Y-57897876D01*
X102655908Y-57957483D01*
X102706202Y-58092328D01*
X102706206Y-58092335D01*
X102792452Y-58207544D01*
X102792455Y-58207547D01*
X102907664Y-58293793D01*
X102907671Y-58293797D01*
X103042517Y-58344091D01*
X103042516Y-58344091D01*
X103049444Y-58344835D01*
X103102127Y-58350500D01*
X104897872Y-58350499D01*
X104957483Y-58344091D01*
X105092331Y-58293796D01*
X105207546Y-58207546D01*
X105293796Y-58092331D01*
X105344091Y-57957483D01*
X105350500Y-57897873D01*
X105350499Y-56102135D01*
X131649500Y-56102135D01*
X131649500Y-57897870D01*
X131649501Y-57897876D01*
X131655908Y-57957483D01*
X131706202Y-58092328D01*
X131706206Y-58092335D01*
X131792452Y-58207544D01*
X131792455Y-58207547D01*
X131907664Y-58293793D01*
X131907671Y-58293797D01*
X132042517Y-58344091D01*
X132042516Y-58344091D01*
X132049444Y-58344835D01*
X132102127Y-58350500D01*
X133897872Y-58350499D01*
X133957483Y-58344091D01*
X134092331Y-58293796D01*
X134207546Y-58207546D01*
X134293796Y-58092331D01*
X134344091Y-57957483D01*
X134350500Y-57897873D01*
X134350499Y-56102128D01*
X134344091Y-56042517D01*
X134293796Y-55907669D01*
X134293795Y-55907668D01*
X134293793Y-55907664D01*
X134207547Y-55792455D01*
X134207544Y-55792452D01*
X134092335Y-55706206D01*
X134092328Y-55706202D01*
X133957482Y-55655908D01*
X133957483Y-55655908D01*
X133897883Y-55649501D01*
X133897881Y-55649500D01*
X133897873Y-55649500D01*
X133897864Y-55649500D01*
X132102129Y-55649500D01*
X132102123Y-55649501D01*
X132042516Y-55655908D01*
X131907671Y-55706202D01*
X131907664Y-55706206D01*
X131792455Y-55792452D01*
X131792452Y-55792455D01*
X131706206Y-55907664D01*
X131706202Y-55907671D01*
X131655908Y-56042517D01*
X131649501Y-56102116D01*
X131649501Y-56102123D01*
X131649500Y-56102135D01*
X105350499Y-56102135D01*
X105350499Y-56102128D01*
X105344091Y-56042517D01*
X105293796Y-55907669D01*
X105293795Y-55907668D01*
X105293793Y-55907664D01*
X105207547Y-55792455D01*
X105207544Y-55792452D01*
X105092335Y-55706206D01*
X105092328Y-55706202D01*
X104957482Y-55655908D01*
X104957483Y-55655908D01*
X104897883Y-55649501D01*
X104897881Y-55649500D01*
X104897873Y-55649500D01*
X104897864Y-55649500D01*
X103102129Y-55649500D01*
X103102123Y-55649501D01*
X103042516Y-55655908D01*
X102907671Y-55706202D01*
X102907664Y-55706206D01*
X102792455Y-55792452D01*
X102792452Y-55792455D01*
X102706206Y-55907664D01*
X102706202Y-55907671D01*
X102655908Y-56042517D01*
X102649501Y-56102116D01*
X102649501Y-56102123D01*
X102649500Y-56102135D01*
X102000500Y-56102135D01*
X102000500Y-42102135D01*
X103149500Y-42102135D01*
X103149500Y-43897870D01*
X103149501Y-43897876D01*
X103155908Y-43957483D01*
X103206202Y-44092328D01*
X103206206Y-44092335D01*
X103292452Y-44207544D01*
X103292455Y-44207547D01*
X103407664Y-44293793D01*
X103407671Y-44293797D01*
X103542517Y-44344091D01*
X103542516Y-44344091D01*
X103549444Y-44344835D01*
X103602127Y-44350500D01*
X105397872Y-44350499D01*
X105457483Y-44344091D01*
X105592331Y-44293796D01*
X105707546Y-44207546D01*
X105793796Y-44092331D01*
X105844091Y-43957483D01*
X105850500Y-43897873D01*
X105850499Y-42102135D01*
X131649500Y-42102135D01*
X131649500Y-43897870D01*
X131649501Y-43897876D01*
X131655908Y-43957483D01*
X131706202Y-44092328D01*
X131706206Y-44092335D01*
X131792452Y-44207544D01*
X131792455Y-44207547D01*
X131907664Y-44293793D01*
X131907671Y-44293797D01*
X132042517Y-44344091D01*
X132042516Y-44344091D01*
X132049444Y-44344835D01*
X132102127Y-44350500D01*
X133897872Y-44350499D01*
X133957483Y-44344091D01*
X134092331Y-44293796D01*
X134207546Y-44207546D01*
X134293796Y-44092331D01*
X134344091Y-43957483D01*
X134350500Y-43897873D01*
X134350499Y-42102128D01*
X134344091Y-42042517D01*
X134293796Y-41907669D01*
X134293795Y-41907668D01*
X134293793Y-41907664D01*
X134207547Y-41792455D01*
X134207544Y-41792452D01*
X134092335Y-41706206D01*
X134092328Y-41706202D01*
X133957482Y-41655908D01*
X133957483Y-41655908D01*
X133897883Y-41649501D01*
X133897881Y-41649500D01*
X133897873Y-41649500D01*
X133897864Y-41649500D01*
X132102129Y-41649500D01*
X132102123Y-41649501D01*
X132042516Y-41655908D01*
X131907671Y-41706202D01*
X131907664Y-41706206D01*
X131792455Y-41792452D01*
X131792452Y-41792455D01*
X131706206Y-41907664D01*
X131706202Y-41907671D01*
X131655908Y-42042517D01*
X131649501Y-42102116D01*
X131649501Y-42102123D01*
X131649500Y-42102135D01*
X105850499Y-42102135D01*
X105850499Y-42102128D01*
X105844091Y-42042517D01*
X105793796Y-41907669D01*
X105793795Y-41907668D01*
X105793793Y-41907664D01*
X105707547Y-41792455D01*
X105707544Y-41792452D01*
X105592335Y-41706206D01*
X105592328Y-41706202D01*
X105457482Y-41655908D01*
X105457483Y-41655908D01*
X105397883Y-41649501D01*
X105397881Y-41649500D01*
X105397873Y-41649500D01*
X105397864Y-41649500D01*
X103602129Y-41649500D01*
X103602123Y-41649501D01*
X103542516Y-41655908D01*
X103407671Y-41706202D01*
X103407664Y-41706206D01*
X103292455Y-41792452D01*
X103292452Y-41792455D01*
X103206206Y-41907664D01*
X103206202Y-41907671D01*
X103155908Y-42042517D01*
X103149501Y-42102116D01*
X103149501Y-42102123D01*
X103149500Y-42102135D01*
X102000500Y-42102135D01*
X102000500Y-40124500D01*
X102020185Y-40057461D01*
X102072989Y-40011706D01*
X102124500Y-40000500D01*
X135375500Y-40000500D01*
X135442539Y-40020185D01*
G37*
%TD.AperFunction*%
D15*
%TO.C,J1*%
X104500000Y-43000000D03*
%TD*%
%TO.C,J3*%
X133000000Y-43000000D03*
%TD*%
%TO.C,J2*%
X104000000Y-57000000D03*
%TD*%
%TO.C,J4*%
X133000000Y-57000000D03*
%TD*%
D14*
%TO.P,J1,1*%
%TO.N,Net-(J1-Pad1)*%
X104500000Y-43000000D03*
%TD*%
D16*
%TO.P,U1,1,OD*%
%TO.N,Net-(Q1-G)*%
X124775000Y-49400000D03*
%TO.P,U1,2,CS*%
%TO.N,Net-(U1-CS)*%
X124775000Y-48450000D03*
%TO.P,U1,3,OC*%
%TO.N,Net-(Q2-G)*%
X124775000Y-47500000D03*
%TO.P,U1,4,TD*%
%TO.N,unconnected-(U1-TD-Pad4)*%
X122500000Y-47500000D03*
%TO.P,U1,5,VCC*%
%TO.N,Net-(U1-VCC)*%
X122500000Y-48450000D03*
%TO.P,U1,6,GND*%
%TO.N,Net-(Q1-S)*%
X122500000Y-49400000D03*
%TD*%
D17*
%TO.P,Q2,1,G*%
%TO.N,Net-(Q2-G)*%
X121500000Y-53300000D03*
%TO.P,Q2,2,S*%
%TO.N,Net-(Q1-D)*%
X120500000Y-53300000D03*
%TO.P,Q2,3,D*%
%TO.N,Net-(Q2-D)*%
X121000000Y-54450000D03*
%TD*%
D18*
%TO.P,R1,1*%
%TO.N,Net-(U1-CS)*%
X127500000Y-52675000D03*
%TO.P,R1,2*%
%TO.N,Net-(Q2-D)*%
X127500000Y-54325000D03*
%TD*%
D19*
%TO.P,C1,1*%
%TO.N,Net-(U1-VCC)*%
X116500000Y-47725000D03*
%TO.P,C1,2*%
%TO.N,Net-(Q1-S)*%
X116500000Y-49275000D03*
%TD*%
D14*
%TO.P,J3,1*%
%TO.N,Net-(J1-Pad1)*%
X133000000Y-43000000D03*
%TD*%
%TO.P,J2,1*%
%TO.N,Net-(Q1-S)*%
X104000000Y-57000000D03*
%TD*%
%TO.P,J4,1*%
%TO.N,Net-(Q2-D)*%
X133000000Y-57000000D03*
%TD*%
D18*
%TO.P,R2,1*%
%TO.N,Net-(J1-Pad1)*%
X116292500Y-43175000D03*
%TO.P,R2,2*%
%TO.N,Net-(U1-VCC)*%
X116292500Y-44825000D03*
%TD*%
D17*
%TO.P,Q1,1,G*%
%TO.N,Net-(Q1-G)*%
X115000000Y-53300000D03*
%TO.P,Q1,2,S*%
%TO.N,Net-(Q1-S)*%
X114000000Y-53300000D03*
%TO.P,Q1,3,D*%
%TO.N,Net-(Q1-D)*%
X114500000Y-54450000D03*
%TD*%
D20*
%TO.N,Net-(Q1-S)*%
X104000000Y-57000000D02*
X106500000Y-54500000D01*
X106500000Y-54500000D02*
X107000000Y-54500000D01*
X116500000Y-49275000D02*
X122375000Y-49275000D01*
X116500000Y-49275000D02*
X115725000Y-49275000D01*
X115725000Y-49275000D02*
X114000000Y-51000000D01*
X122375000Y-49275000D02*
X122500000Y-49400000D01*
X108200000Y-53300000D02*
X114000000Y-53300000D01*
X114000000Y-51000000D02*
X114000000Y-53300000D01*
X107000000Y-54500000D02*
X108200000Y-53300000D01*
%TO.N,Net-(U1-VCC)*%
X116292500Y-47517500D02*
X116500000Y-47725000D01*
X117225000Y-48450000D02*
X122500000Y-48450000D01*
X116292500Y-44825000D02*
X116292500Y-47517500D01*
X116500000Y-47725000D02*
X117225000Y-48450000D01*
%TO.N,Net-(J1-Pad1)*%
X116825000Y-43175000D02*
X117000000Y-43000000D01*
X116117500Y-43000000D02*
X116292500Y-43175000D01*
X116292500Y-43175000D02*
X116825000Y-43175000D01*
X104500000Y-43000000D02*
X116117500Y-43000000D01*
X117000000Y-43000000D02*
X133000000Y-43000000D01*
%TO.N,Net-(Q2-D)*%
X121000000Y-54450000D02*
X127375000Y-54450000D01*
X130325000Y-54325000D02*
X133000000Y-57000000D01*
X127375000Y-54450000D02*
X127500000Y-54325000D01*
X127500000Y-54325000D02*
X130325000Y-54325000D01*
%TO.N,Net-(Q1-G)*%
X117500000Y-51500000D02*
X115700000Y-53300000D01*
X124775000Y-49400000D02*
X122675000Y-51500000D01*
X122675000Y-51500000D02*
X117500000Y-51500000D01*
X115700000Y-53300000D02*
X115000000Y-53300000D01*
%TO.N,Net-(Q1-D)*%
X119350000Y-54450000D02*
X120500000Y-53300000D01*
X114500000Y-54450000D02*
X119350000Y-54450000D01*
%TO.N,Net-(Q2-G)*%
X125300000Y-53300000D02*
X121500000Y-53300000D01*
X126500000Y-47500000D02*
X130000000Y-51000000D01*
X130000000Y-51000000D02*
X130000000Y-53500000D01*
X124775000Y-47500000D02*
X126500000Y-47500000D01*
X130000000Y-53500000D02*
X125500000Y-53500000D01*
X125500000Y-53500000D02*
X125300000Y-53300000D01*
%TO.N,Net-(U1-CS)*%
X127500000Y-50500000D02*
X127500000Y-52675000D01*
X124775000Y-48450000D02*
X125450000Y-48450000D01*
X125450000Y-48450000D02*
X127500000Y-50500000D01*
%TD*%
%TA.AperFunction,NonConductor*%
G36*
X135442539Y-40020185D02*
G01*
X135488294Y-40072989D01*
X135499500Y-40124500D01*
X135499500Y-59375500D01*
X135479815Y-59442539D01*
X135427011Y-59488294D01*
X135375500Y-59499500D01*
X102124500Y-59499500D01*
X102057461Y-59479815D01*
X102011706Y-59427011D01*
X102000500Y-59375500D01*
X102000500Y-56102135D01*
X102649500Y-56102135D01*
X102649500Y-57897870D01*
X102649501Y-57897876D01*
X102655908Y-57957483D01*
X102706202Y-58092328D01*
X102706206Y-58092335D01*
X102792452Y-58207544D01*
X102792455Y-58207547D01*
X102907664Y-58293793D01*
X102907671Y-58293797D01*
X103042517Y-58344091D01*
X103042516Y-58344091D01*
X103049444Y-58344835D01*
X103102127Y-58350500D01*
X104897872Y-58350499D01*
X104957483Y-58344091D01*
X105092331Y-58293796D01*
X105207546Y-58207546D01*
X105293796Y-58092331D01*
X105344091Y-57957483D01*
X105350500Y-57897873D01*
X105350499Y-56550095D01*
X105370184Y-56483057D01*
X105386813Y-56462420D01*
X106712416Y-55136819D01*
X106739343Y-55122115D01*
X106765162Y-55105523D01*
X106771362Y-55104631D01*
X106773739Y-55103334D01*
X106800097Y-55100500D01*
X106913331Y-55100500D01*
X106913347Y-55100501D01*
X106920943Y-55100501D01*
X107079054Y-55100501D01*
X107079057Y-55100501D01*
X107231785Y-55059577D01*
X107281904Y-55030639D01*
X107368716Y-54980520D01*
X107480520Y-54868716D01*
X107480520Y-54868714D01*
X107490728Y-54858507D01*
X107490729Y-54858504D01*
X108412416Y-53936819D01*
X108473739Y-53903334D01*
X108500097Y-53900500D01*
X113288965Y-53900500D01*
X113356004Y-53920185D01*
X113388232Y-53950190D01*
X113412449Y-53982541D01*
X113412452Y-53982544D01*
X113412454Y-53982546D01*
X113412457Y-53982548D01*
X113527664Y-54068793D01*
X113527671Y-54068797D01*
X113662517Y-54119091D01*
X113670062Y-54120874D01*
X113669523Y-54123151D01*
X113723287Y-54145408D01*
X113763147Y-54202793D01*
X113769500Y-54241975D01*
X113769500Y-54822870D01*
X113769501Y-54822876D01*
X113775908Y-54882483D01*
X113826202Y-55017328D01*
X113826206Y-55017335D01*
X113912452Y-55132544D01*
X113912455Y-55132547D01*
X114027664Y-55218793D01*
X114027671Y-55218797D01*
X114045643Y-55225500D01*
X114162517Y-55269091D01*
X114222127Y-55275500D01*
X114777872Y-55275499D01*
X114837483Y-55269091D01*
X114972331Y-55218796D01*
X115087546Y-55132546D01*
X115111768Y-55100190D01*
X115167701Y-55058318D01*
X115211035Y-55050500D01*
X119263331Y-55050500D01*
X119263347Y-55050501D01*
X119270943Y-55050501D01*
X119429054Y-55050501D01*
X119429057Y-55050501D01*
X119581785Y-55009577D01*
X119667334Y-54960185D01*
X119718716Y-54930520D01*
X119830520Y-54818716D01*
X119830520Y-54818714D01*
X119840724Y-54808511D01*
X119840727Y-54808506D01*
X120057822Y-54591412D01*
X120119142Y-54557929D01*
X120188834Y-54562913D01*
X120244767Y-54604785D01*
X120269184Y-54670249D01*
X120269500Y-54679094D01*
X120269500Y-54822869D01*
X120269501Y-54822876D01*
X120275908Y-54882483D01*
X120326202Y-55017328D01*
X120326206Y-55017335D01*
X120412452Y-55132544D01*
X120412455Y-55132547D01*
X120527664Y-55218793D01*
X120527671Y-55218797D01*
X120545643Y-55225500D01*
X120662517Y-55269091D01*
X120722127Y-55275500D01*
X121277872Y-55275499D01*
X121337483Y-55269091D01*
X121472331Y-55218796D01*
X121587546Y-55132546D01*
X121611768Y-55100190D01*
X121667701Y-55058318D01*
X121711035Y-55050500D01*
X126708768Y-55050500D01*
X126775807Y-55070185D01*
X126785235Y-55076885D01*
X126789807Y-55080466D01*
X126789812Y-55080469D01*
X126789815Y-55080472D01*
X126935394Y-55168478D01*
X127097804Y-55219086D01*
X127168384Y-55225500D01*
X127168387Y-55225500D01*
X127831613Y-55225500D01*
X127831616Y-55225500D01*
X127902196Y-55219086D01*
X128064606Y-55168478D01*
X128210185Y-55080472D01*
X128260018Y-55030639D01*
X128328839Y-54961819D01*
X128390162Y-54928334D01*
X128416520Y-54925500D01*
X130024903Y-54925500D01*
X130091942Y-54945185D01*
X130112584Y-54961819D01*
X131613181Y-56462416D01*
X131646666Y-56523739D01*
X131649500Y-56550097D01*
X131649500Y-57897870D01*
X131649501Y-57897876D01*
X131655908Y-57957483D01*
X131706202Y-58092328D01*
X131706206Y-58092335D01*
X131792452Y-58207544D01*
X131792455Y-58207547D01*
X131907664Y-58293793D01*
X131907671Y-58293797D01*
X132042517Y-58344091D01*
X132042516Y-58344091D01*
X132049444Y-58344835D01*
X132102127Y-58350500D01*
X133897872Y-58350499D01*
X133957483Y-58344091D01*
X134092331Y-58293796D01*
X134207546Y-58207546D01*
X134293796Y-58092331D01*
X134344091Y-57957483D01*
X134350500Y-57897873D01*
X134350499Y-56102128D01*
X134344091Y-56042517D01*
X134293796Y-55907669D01*
X134293795Y-55907668D01*
X134293793Y-55907664D01*
X134207547Y-55792455D01*
X134207544Y-55792452D01*
X134092335Y-55706206D01*
X134092328Y-55706202D01*
X133957482Y-55655908D01*
X133957483Y-55655908D01*
X133897883Y-55649501D01*
X133897881Y-55649500D01*
X133897873Y-55649500D01*
X133897865Y-55649500D01*
X132550097Y-55649500D01*
X132483058Y-55629815D01*
X132462416Y-55613181D01*
X130812590Y-53963355D01*
X130812588Y-53963352D01*
X130693717Y-53844481D01*
X130693716Y-53844480D01*
X130633797Y-53809886D01*
X130585582Y-53759320D01*
X130572358Y-53690713D01*
X130576019Y-53670421D01*
X130600500Y-53579057D01*
X130600500Y-50920943D01*
X130594754Y-50899500D01*
X130586506Y-50868716D01*
X130559577Y-50768216D01*
X130548330Y-50748735D01*
X130480524Y-50631290D01*
X130480521Y-50631286D01*
X130480520Y-50631284D01*
X130368716Y-50519480D01*
X130368715Y-50519479D01*
X130364385Y-50515149D01*
X130364374Y-50515139D01*
X126987590Y-47138355D01*
X126987588Y-47138352D01*
X126868717Y-47019481D01*
X126868716Y-47019480D01*
X126781904Y-46969360D01*
X126781904Y-46969359D01*
X126781900Y-46969358D01*
X126731785Y-46940423D01*
X126579057Y-46899499D01*
X126420943Y-46899499D01*
X126413347Y-46899499D01*
X126413331Y-46899500D01*
X125808308Y-46899500D01*
X125741269Y-46879815D01*
X125720626Y-46863180D01*
X125689370Y-46831923D01*
X125689362Y-46831917D01*
X125609439Y-46784651D01*
X125547898Y-46748256D01*
X125547897Y-46748255D01*
X125547896Y-46748255D01*
X125547893Y-46748254D01*
X125390073Y-46702402D01*
X125390067Y-46702401D01*
X125353201Y-46699500D01*
X125353194Y-46699500D01*
X124196806Y-46699500D01*
X124196798Y-46699500D01*
X124159932Y-46702401D01*
X124159926Y-46702402D01*
X124002106Y-46748254D01*
X124002103Y-46748255D01*
X123860637Y-46831917D01*
X123860629Y-46831923D01*
X123744423Y-46948129D01*
X123744414Y-46948140D01*
X123744229Y-46948455D01*
X123744019Y-46948650D01*
X123739639Y-46954298D01*
X123738727Y-46953591D01*
X123693157Y-46996136D01*
X123624415Y-47008637D01*
X123559827Y-46981988D01*
X123535643Y-46954078D01*
X123535361Y-46954298D01*
X123531323Y-46949092D01*
X123530771Y-46948455D01*
X123530585Y-46948140D01*
X123530576Y-46948129D01*
X123414370Y-46831923D01*
X123414362Y-46831917D01*
X123334439Y-46784651D01*
X123272898Y-46748256D01*
X123272897Y-46748255D01*
X123272896Y-46748255D01*
X123272893Y-46748254D01*
X123115073Y-46702402D01*
X123115067Y-46702401D01*
X123078201Y-46699500D01*
X123078194Y-46699500D01*
X121921806Y-46699500D01*
X121921798Y-46699500D01*
X121884932Y-46702401D01*
X121884926Y-46702402D01*
X121727106Y-46748254D01*
X121727103Y-46748255D01*
X121585637Y-46831917D01*
X121585629Y-46831923D01*
X121469423Y-46948129D01*
X121469417Y-46948137D01*
X121385755Y-47089603D01*
X121385754Y-47089606D01*
X121339902Y-47247426D01*
X121339901Y-47247432D01*
X121337000Y-47284298D01*
X121337000Y-47715686D01*
X121337001Y-47715717D01*
X121337006Y-47715778D01*
X121337003Y-47715787D01*
X121337096Y-47718132D01*
X121336506Y-47718155D01*
X121322638Y-47784155D01*
X121273584Y-47833909D01*
X121213388Y-47849500D01*
X117599500Y-47849500D01*
X117532461Y-47829815D01*
X117486706Y-47777011D01*
X117475500Y-47725500D01*
X117475499Y-47451663D01*
X117475498Y-47451644D01*
X117465349Y-47352292D01*
X117465348Y-47352289D01*
X117430602Y-47247432D01*
X117412003Y-47191303D01*
X117411999Y-47191297D01*
X117411998Y-47191294D01*
X117322970Y-47046959D01*
X117322967Y-47046955D01*
X117203044Y-46927032D01*
X117203040Y-46927029D01*
X117058705Y-46838001D01*
X117058699Y-46837998D01*
X117058697Y-46837997D01*
X116977994Y-46811255D01*
X116920551Y-46771484D01*
X116893728Y-46706968D01*
X116893000Y-46693550D01*
X116893000Y-45716715D01*
X116912685Y-45649676D01*
X116952849Y-45610598D01*
X117002685Y-45580472D01*
X117122972Y-45460185D01*
X117210978Y-45314606D01*
X117261586Y-45152196D01*
X117268000Y-45081616D01*
X117268000Y-44568384D01*
X117261586Y-44497804D01*
X117210978Y-44335394D01*
X117122972Y-44189815D01*
X117122970Y-44189813D01*
X117122969Y-44189811D01*
X117020839Y-44087681D01*
X116987354Y-44026358D01*
X116992338Y-43956666D01*
X117020839Y-43912319D01*
X117122968Y-43810189D01*
X117122969Y-43810188D01*
X117122972Y-43810185D01*
X117210978Y-43664606D01*
X117210977Y-43664606D01*
X117213551Y-43660350D01*
X117265079Y-43613162D01*
X117319668Y-43600500D01*
X131525501Y-43600500D01*
X131592540Y-43620185D01*
X131638295Y-43672989D01*
X131649501Y-43724500D01*
X131649501Y-43897876D01*
X131655908Y-43957483D01*
X131706202Y-44092328D01*
X131706206Y-44092335D01*
X131792452Y-44207544D01*
X131792455Y-44207547D01*
X131907664Y-44293793D01*
X131907671Y-44293797D01*
X132042517Y-44344091D01*
X132042516Y-44344091D01*
X132049444Y-44344835D01*
X132102127Y-44350500D01*
X133897872Y-44350499D01*
X133957483Y-44344091D01*
X134092331Y-44293796D01*
X134207546Y-44207546D01*
X134293796Y-44092331D01*
X134344091Y-43957483D01*
X134350500Y-43897873D01*
X134350499Y-42102128D01*
X134344091Y-42042517D01*
X134293796Y-41907669D01*
X134293795Y-41907668D01*
X134293793Y-41907664D01*
X134207547Y-41792455D01*
X134207544Y-41792452D01*
X134092335Y-41706206D01*
X134092328Y-41706202D01*
X133957482Y-41655908D01*
X133957483Y-41655908D01*
X133897883Y-41649501D01*
X133897881Y-41649500D01*
X133897873Y-41649500D01*
X133897864Y-41649500D01*
X132102129Y-41649500D01*
X132102123Y-41649501D01*
X132042516Y-41655908D01*
X131907671Y-41706202D01*
X131907664Y-41706206D01*
X131792455Y-41792452D01*
X131792452Y-41792455D01*
X131706206Y-41907664D01*
X131706202Y-41907671D01*
X131655908Y-42042517D01*
X131649501Y-42102116D01*
X131649501Y-42102123D01*
X131649500Y-42102135D01*
X131649500Y-42275500D01*
X131629815Y-42342539D01*
X131577011Y-42388294D01*
X131525500Y-42399500D01*
X117004123Y-42399500D01*
X116939973Y-42381617D01*
X116857106Y-42331522D01*
X116842629Y-42327011D01*
X116694696Y-42280914D01*
X116694694Y-42280913D01*
X116694692Y-42280913D01*
X116645278Y-42276423D01*
X116624116Y-42274500D01*
X115960884Y-42274500D01*
X115941645Y-42276248D01*
X115890307Y-42280913D01*
X115727893Y-42331522D01*
X115645027Y-42381617D01*
X115580877Y-42399500D01*
X105974499Y-42399500D01*
X105907460Y-42379815D01*
X105861705Y-42327011D01*
X105850499Y-42275500D01*
X105850499Y-42102129D01*
X105850498Y-42102123D01*
X105850497Y-42102116D01*
X105844091Y-42042517D01*
X105793796Y-41907669D01*
X105793795Y-41907668D01*
X105793793Y-41907664D01*
X105707547Y-41792455D01*
X105707544Y-41792452D01*
X105592335Y-41706206D01*
X105592328Y-41706202D01*
X105457482Y-41655908D01*
X105457483Y-41655908D01*
X105397883Y-41649501D01*
X105397881Y-41649500D01*
X105397873Y-41649500D01*
X105397864Y-41649500D01*
X103602129Y-41649500D01*
X103602123Y-41649501D01*
X103542516Y-41655908D01*
X103407671Y-41706202D01*
X103407664Y-41706206D01*
X103292455Y-41792452D01*
X103292452Y-41792455D01*
X103206206Y-41907664D01*
X103206202Y-41907671D01*
X103155908Y-42042517D01*
X103149501Y-42102116D01*
X103149501Y-42102123D01*
X103149500Y-42102135D01*
X103149500Y-43897870D01*
X103149501Y-43897876D01*
X103155908Y-43957483D01*
X103206202Y-44092328D01*
X103206206Y-44092335D01*
X103292452Y-44207544D01*
X103292455Y-44207547D01*
X103407664Y-44293793D01*
X103407671Y-44293797D01*
X103542517Y-44344091D01*
X103542516Y-44344091D01*
X103549444Y-44344835D01*
X103602127Y-44350500D01*
X105397872Y-44350499D01*
X105457483Y-44344091D01*
X105592331Y-44293796D01*
X105707546Y-44207546D01*
X105793796Y-44092331D01*
X105844091Y-43957483D01*
X105850500Y-43897873D01*
X105850500Y-43724500D01*
X105870185Y-43657461D01*
X105922989Y-43611706D01*
X105974500Y-43600500D01*
X115265333Y-43600500D01*
X115332372Y-43620185D01*
X115371450Y-43660350D01*
X115374021Y-43664603D01*
X115374022Y-43664606D01*
X115462028Y-43810185D01*
X115462030Y-43810188D01*
X115564161Y-43912319D01*
X115597646Y-43973642D01*
X115592662Y-44043334D01*
X115564161Y-44087681D01*
X115462031Y-44189810D01*
X115462030Y-44189811D01*
X115374022Y-44335393D01*
X115323413Y-44497807D01*
X115317000Y-44568386D01*
X115317000Y-45081613D01*
X115323413Y-45152192D01*
X115374022Y-45314606D01*
X115462030Y-45460188D01*
X115582311Y-45580469D01*
X115582313Y-45580470D01*
X115582315Y-45580472D01*
X115632150Y-45610598D01*
X115679338Y-45662126D01*
X115692000Y-45716715D01*
X115692000Y-46987522D01*
X115673538Y-47052619D01*
X115588001Y-47191294D01*
X115587996Y-47191305D01*
X115534651Y-47352290D01*
X115524500Y-47451647D01*
X115524500Y-47998337D01*
X115524501Y-47998355D01*
X115534650Y-48097707D01*
X115534651Y-48097710D01*
X115587996Y-48258694D01*
X115588001Y-48258705D01*
X115677029Y-48403040D01*
X115677032Y-48403044D01*
X115686306Y-48412318D01*
X115719791Y-48473641D01*
X115714807Y-48543333D01*
X115699279Y-48572420D01*
X115693407Y-48580580D01*
X115677032Y-48596956D01*
X115649440Y-48641687D01*
X115646863Y-48645270D01*
X115622627Y-48664137D01*
X115599796Y-48684672D01*
X115593040Y-48687171D01*
X115591731Y-48688191D01*
X115589816Y-48688364D01*
X115578303Y-48692624D01*
X115493214Y-48715423D01*
X115493209Y-48715426D01*
X115356290Y-48794475D01*
X115356282Y-48794481D01*
X113519481Y-50631282D01*
X113519479Y-50631285D01*
X113469361Y-50718094D01*
X113469359Y-50718096D01*
X113440425Y-50768209D01*
X113440424Y-50768210D01*
X113438943Y-50773739D01*
X113399499Y-50920943D01*
X113399499Y-50920945D01*
X113399499Y-51089046D01*
X113399500Y-51089059D01*
X113399500Y-52575500D01*
X113379815Y-52642539D01*
X113327011Y-52688294D01*
X113275500Y-52699500D01*
X108279057Y-52699500D01*
X108120942Y-52699500D01*
X107968215Y-52740423D01*
X107968214Y-52740423D01*
X107968212Y-52740424D01*
X107968209Y-52740425D01*
X107918096Y-52769359D01*
X107918095Y-52769360D01*
X107874689Y-52794420D01*
X107831285Y-52819479D01*
X107831282Y-52819481D01*
X107719478Y-52931286D01*
X106787584Y-53863181D01*
X106760656Y-53877884D01*
X106734838Y-53894477D01*
X106728637Y-53895368D01*
X106726261Y-53896666D01*
X106699903Y-53899500D01*
X106586669Y-53899500D01*
X106586653Y-53899499D01*
X106579057Y-53899499D01*
X106420943Y-53899499D01*
X106313587Y-53928265D01*
X106268210Y-53940424D01*
X106268209Y-53940425D01*
X106218096Y-53969359D01*
X106218095Y-53969360D01*
X106195265Y-53982541D01*
X106131285Y-54019479D01*
X106131282Y-54019481D01*
X106019478Y-54131286D01*
X104537582Y-55613181D01*
X104476259Y-55646666D01*
X104449901Y-55649500D01*
X103102129Y-55649500D01*
X103102123Y-55649501D01*
X103042516Y-55655908D01*
X102907671Y-55706202D01*
X102907664Y-55706206D01*
X102792455Y-55792452D01*
X102792452Y-55792455D01*
X102706206Y-55907664D01*
X102706202Y-55907671D01*
X102655908Y-56042517D01*
X102649501Y-56102116D01*
X102649501Y-56102123D01*
X102649500Y-56102135D01*
X102000500Y-56102135D01*
X102000500Y-40124500D01*
X102020185Y-40057461D01*
X102072989Y-40011706D01*
X102124500Y-40000500D01*
X135375500Y-40000500D01*
X135442539Y-40020185D01*
G37*
%TD.AperFunction*%
%TA.AperFunction,NonConductor*%
G36*
X121420567Y-49895185D02*
G01*
X121460259Y-49936378D01*
X121469414Y-49951859D01*
X121469423Y-49951870D01*
X121585629Y-50068076D01*
X121585633Y-50068079D01*
X121585635Y-50068081D01*
X121727102Y-50151744D01*
X121762396Y-50161998D01*
X121884926Y-50197597D01*
X121884929Y-50197597D01*
X121884931Y-50197598D01*
X121921806Y-50200500D01*
X121921814Y-50200500D01*
X122825902Y-50200500D01*
X122892941Y-50220185D01*
X122938696Y-50272989D01*
X122948640Y-50342147D01*
X122919615Y-50405703D01*
X122913583Y-50412181D01*
X122462584Y-50863181D01*
X122401261Y-50896666D01*
X122374903Y-50899500D01*
X117420940Y-50899500D01*
X117380019Y-50910464D01*
X117380019Y-50910465D01*
X117342751Y-50920451D01*
X117268214Y-50940423D01*
X117268209Y-50940426D01*
X117131290Y-51019475D01*
X117131282Y-51019481D01*
X117019478Y-51131286D01*
X115632506Y-52518257D01*
X115571183Y-52551742D01*
X115501491Y-52546758D01*
X115480268Y-52535170D01*
X115480114Y-52535454D01*
X115472328Y-52531202D01*
X115337486Y-52480910D01*
X115337485Y-52480909D01*
X115337483Y-52480909D01*
X115277873Y-52474500D01*
X115277864Y-52474500D01*
X114724500Y-52474500D01*
X114657461Y-52454815D01*
X114611706Y-52402011D01*
X114600500Y-52350500D01*
X114600500Y-51300096D01*
X114620185Y-51233057D01*
X114636814Y-51212419D01*
X115714831Y-50134402D01*
X115776152Y-50100919D01*
X115845844Y-50105903D01*
X115867607Y-50116547D01*
X115941294Y-50161998D01*
X115941297Y-50161999D01*
X115941303Y-50162003D01*
X116102292Y-50215349D01*
X116201655Y-50225500D01*
X116798344Y-50225499D01*
X116798352Y-50225498D01*
X116798355Y-50225498D01*
X116852760Y-50219940D01*
X116897708Y-50215349D01*
X117058697Y-50162003D01*
X117203044Y-50072968D01*
X117322968Y-49953044D01*
X117334465Y-49934403D01*
X117386412Y-49887679D01*
X117440004Y-49875500D01*
X121353528Y-49875500D01*
X121420567Y-49895185D01*
G37*
%TD.AperFunction*%
%TA.AperFunction,NonConductor*%
G36*
X128232516Y-50081801D02*
G01*
X128234628Y-50083863D01*
X129363181Y-51212416D01*
X129396666Y-51273739D01*
X129399500Y-51300097D01*
X129399500Y-52775500D01*
X129379815Y-52842539D01*
X129327011Y-52888294D01*
X129275500Y-52899500D01*
X128599500Y-52899500D01*
X128532461Y-52879815D01*
X128486706Y-52827011D01*
X128475500Y-52775500D01*
X128475500Y-52418386D01*
X128469086Y-52347807D01*
X128469086Y-52347804D01*
X128418478Y-52185394D01*
X128330472Y-52039815D01*
X128330470Y-52039813D01*
X128330469Y-52039811D01*
X128210188Y-51919530D01*
X128160348Y-51889400D01*
X128113162Y-51837871D01*
X128100500Y-51783284D01*
X128100500Y-50589060D01*
X128100501Y-50589047D01*
X128100501Y-50420945D01*
X128100501Y-50420943D01*
X128059577Y-50268215D01*
X128039559Y-50233544D01*
X128023087Y-50165645D01*
X128045939Y-50099617D01*
X128100860Y-50056427D01*
X128170414Y-50049785D01*
X128232516Y-50081801D01*
G37*
%TD.AperFunction*%
%TA.AperFunction,NonConductor*%
G36*
X126018994Y-49869262D02*
G01*
X126029008Y-49878244D01*
X126863181Y-50712416D01*
X126896666Y-50773739D01*
X126899500Y-50800097D01*
X126899500Y-51783284D01*
X126879815Y-51850323D01*
X126839652Y-51889400D01*
X126789811Y-51919530D01*
X126669530Y-52039811D01*
X126581522Y-52185393D01*
X126530913Y-52347807D01*
X126524500Y-52418386D01*
X126524500Y-52775500D01*
X126504815Y-52842539D01*
X126452011Y-52888294D01*
X126400500Y-52899500D01*
X125800098Y-52899500D01*
X125733059Y-52879815D01*
X125727194Y-52875804D01*
X125719308Y-52870072D01*
X125668716Y-52819480D01*
X125581904Y-52769360D01*
X125576269Y-52766106D01*
X125576267Y-52766105D01*
X125531785Y-52740423D01*
X125379057Y-52699499D01*
X125220943Y-52699499D01*
X125213347Y-52699499D01*
X125213331Y-52699500D01*
X122211035Y-52699500D01*
X122143996Y-52679815D01*
X122111768Y-52649810D01*
X122087550Y-52617458D01*
X122087547Y-52617455D01*
X122087546Y-52617454D01*
X122087542Y-52617451D01*
X121972335Y-52531206D01*
X121972328Y-52531202D01*
X121837486Y-52480910D01*
X121837485Y-52480909D01*
X121837483Y-52480909D01*
X121777873Y-52474500D01*
X121777863Y-52474500D01*
X121222129Y-52474500D01*
X121222123Y-52474501D01*
X121162516Y-52480908D01*
X121043333Y-52525361D01*
X120973641Y-52530345D01*
X120956667Y-52525361D01*
X120837486Y-52480910D01*
X120837485Y-52480909D01*
X120837483Y-52480909D01*
X120777873Y-52474500D01*
X120777863Y-52474500D01*
X120222129Y-52474500D01*
X120222123Y-52474501D01*
X120162516Y-52480908D01*
X120027671Y-52531202D01*
X120027664Y-52531206D01*
X119912455Y-52617452D01*
X119912452Y-52617455D01*
X119826206Y-52732664D01*
X119826202Y-52732671D01*
X119775908Y-52867517D01*
X119769501Y-52927116D01*
X119769500Y-52927135D01*
X119769500Y-53129901D01*
X119749815Y-53196940D01*
X119733180Y-53217582D01*
X119280360Y-53670405D01*
X119137584Y-53813181D01*
X119076261Y-53846666D01*
X119049903Y-53849500D01*
X116299096Y-53849500D01*
X116232057Y-53829815D01*
X116186302Y-53777011D01*
X116176358Y-53707853D01*
X116205383Y-53644297D01*
X116211415Y-53637819D01*
X117712416Y-52136819D01*
X117773739Y-52103334D01*
X117800097Y-52100500D01*
X122588331Y-52100500D01*
X122588347Y-52100501D01*
X122595943Y-52100501D01*
X122754054Y-52100501D01*
X122754057Y-52100501D01*
X122906785Y-52059577D01*
X122956904Y-52030639D01*
X123043716Y-51980520D01*
X123155520Y-51868716D01*
X123155520Y-51868714D01*
X123165728Y-51858507D01*
X123165729Y-51858504D01*
X124787416Y-50236819D01*
X124848739Y-50203334D01*
X124875097Y-50200500D01*
X125353186Y-50200500D01*
X125353194Y-50200500D01*
X125390069Y-50197598D01*
X125390071Y-50197597D01*
X125390073Y-50197597D01*
X125431691Y-50185505D01*
X125547898Y-50151744D01*
X125689365Y-50068081D01*
X125805581Y-49951865D01*
X125834595Y-49902803D01*
X125885663Y-49855121D01*
X125954405Y-49842617D01*
X126018994Y-49869262D01*
G37*
%TD.AperFunction*%
D15*
%TO.C,J1*%
X104500000Y-43000000D03*
%TD*%
D21*
%TO.C,U1*%
X124775000Y-49400000D03*
X124775000Y-48450000D03*
X124775000Y-47500000D03*
X122500000Y-47500000D03*
X122500000Y-48450000D03*
X122500000Y-49400000D03*
%TD*%
D22*
%TO.C,Q2*%
X121500000Y-53300000D03*
X120500000Y-53300000D03*
X121000000Y-54450000D03*
%TD*%
D23*
%TO.C,R1*%
X127500000Y-52675000D03*
X127500000Y-54325000D03*
%TD*%
D24*
%TO.C,C1*%
X116500000Y-47725000D03*
X116500000Y-49275000D03*
%TD*%
D15*
%TO.C,J3*%
X133000000Y-43000000D03*
%TD*%
%TO.C,J2*%
X104000000Y-57000000D03*
%TD*%
%TO.C,J4*%
X133000000Y-57000000D03*
%TD*%
D23*
%TO.C,R2*%
X116292500Y-43175000D03*
X116292500Y-44825000D03*
%TD*%
D22*
%TO.C,Q1*%
X115000000Y-53300000D03*
X114000000Y-53300000D03*
X114500000Y-54450000D03*
%TD*%
D25*
X101500000Y-39500000D02*
X136000000Y-39500000D01*
X136000000Y-60000000D01*
X101500000Y-60000000D01*
X101500000Y-39500000D01*
M02*
