%TF.GenerationSoftware,KiCad,Pcbnew,9.0.8+dfsg-1*%
%TF.CreationDate,2026-06-07T13:43:38+10:00*%
%TF.ProjectId,DW01 Charger,44573031-2043-4686-9172-6765722e6b69,rev?*%
%TF.SameCoordinates,Original*%
%TF.FileFunction,Copper,L1,Top*%
%TF.FilePolarity,Positive*%
%FSLAX46Y46*%
G04 Gerber Fmt 4.6, Leading zero omitted, Abs format (unit mm)*
G04 Created by KiCad (PCBNEW 9.0.8+dfsg-1) date 2026-06-07 13:43:38*
%MOMM*%
%LPD*%
G01*
G04 APERTURE LIST*
%TA.AperFunction,ComponentPad*%
%ADD10R,1.700000X1.700000*%
%TD*%
%TA.AperFunction,SMDPad,CuDef*%
%ADD11R,0.460000X0.650000*%
%TD*%
%TA.AperFunction,Conductor*%
%ADD12C,0.200000*%
%TD*%
G04 APERTURE END LIST*
D10*
%TO.P,J1,*%
%TO.N,*%
X104500000Y-43000000D03*
%TD*%
D11*
%TO.P,Q2,1,G*%
%TO.N,Net-(Q2-G)*%
X121500000Y-53300000D03*
%TO.P,Q2,2,S*%
%TO.N,Net-(Q1-D)*%
X120500000Y-53300000D03*
%TO.P,Q2,3,D*%
%TO.N,Net-(Q2-D)*%
X121000000Y-54450000D03*
%TD*%
%TO.P,R1,1*%
%TO.N,Net-(U1-CS)*%
%TA.AperFunction,SMDPad,CuDef*%
G36*
G01*
X127225000Y-52275000D02*
X127775000Y-52275000D01*
G75*
G02*
X127975000Y-52475000I0J-200000D01*
G01*
X127975000Y-52875000D01*
G75*
G02*
X127775000Y-53075000I-200000J0D01*
G01*
X127225000Y-53075000D01*
G75*
G02*
X127025000Y-52875000I0J200000D01*
G01*
X127025000Y-52475000D01*
G75*
G02*
X127225000Y-52275000I200000J0D01*
G01*
G37*
%TD.AperFunction*%
%TO.P,R1,2*%
%TO.N,Net-(Q2-D)*%
%TA.AperFunction,SMDPad,CuDef*%
G36*
G01*
X127225000Y-53925000D02*
X127775000Y-53925000D01*
G75*
G02*
X127975000Y-54125000I0J-200000D01*
G01*
X127975000Y-54525000D01*
G75*
G02*
X127775000Y-54725000I-200000J0D01*
G01*
X127225000Y-54725000D01*
G75*
G02*
X127025000Y-54525000I0J200000D01*
G01*
X127025000Y-54125000D01*
G75*
G02*
X127225000Y-53925000I200000J0D01*
G01*
G37*
%TD.AperFunction*%
%TD*%
%TO.P,C1,1*%
%TO.N,Net-(U1-VCC)*%
%TA.AperFunction,SMDPad,CuDef*%
G36*
G01*
X116250000Y-47275000D02*
X116750000Y-47275000D01*
G75*
G02*
X116975000Y-47500000I0J-225000D01*
G01*
X116975000Y-47950000D01*
G75*
G02*
X116750000Y-48175000I-225000J0D01*
G01*
X116250000Y-48175000D01*
G75*
G02*
X116025000Y-47950000I0J225000D01*
G01*
X116025000Y-47500000D01*
G75*
G02*
X116250000Y-47275000I225000J0D01*
G01*
G37*
%TD.AperFunction*%
%TO.P,C1,2*%
%TO.N,Net-(Q1-S)*%
%TA.AperFunction,SMDPad,CuDef*%
G36*
G01*
X116250000Y-48825000D02*
X116750000Y-48825000D01*
G75*
G02*
X116975000Y-49050000I0J-225000D01*
G01*
X116975000Y-49500000D01*
G75*
G02*
X116750000Y-49725000I-225000J0D01*
G01*
X116250000Y-49725000D01*
G75*
G02*
X116025000Y-49500000I0J225000D01*
G01*
X116025000Y-49050000D01*
G75*
G02*
X116250000Y-48825000I225000J0D01*
G01*
G37*
%TD.AperFunction*%
%TD*%
D10*
%TO.P,J3,*%
%TO.N,*%
X133000000Y-43000000D03*
%TD*%
%TO.P,J2,*%
%TO.N,*%
X104000000Y-57000000D03*
%TD*%
%TO.P,J4,*%
%TO.N,*%
X133000000Y-57000000D03*
%TD*%
%TO.P,R2,1*%
%TO.N,Net-(J1-Pad1)*%
%TA.AperFunction,SMDPad,CuDef*%
G36*
G01*
X116017500Y-42775000D02*
X116567500Y-42775000D01*
G75*
G02*
X116767500Y-42975000I0J-200000D01*
G01*
X116767500Y-43375000D01*
G75*
G02*
X116567500Y-43575000I-200000J0D01*
G01*
X116017500Y-43575000D01*
G75*
G02*
X115817500Y-43375000I0J200000D01*
G01*
X115817500Y-42975000D01*
G75*
G02*
X116017500Y-42775000I200000J0D01*
G01*
G37*
%TD.AperFunction*%
%TO.P,R2,2*%
%TO.N,Net-(U1-VCC)*%
%TA.AperFunction,SMDPad,CuDef*%
G36*
G01*
X116017500Y-44425000D02*
X116567500Y-44425000D01*
G75*
G02*
X116767500Y-44625000I0J-200000D01*
G01*
X116767500Y-45025000D01*
G75*
G02*
X116567500Y-45225000I-200000J0D01*
G01*
X116017500Y-45225000D01*
G75*
G02*
X115817500Y-45025000I0J200000D01*
G01*
X115817500Y-44625000D01*
G75*
G02*
X116017500Y-44425000I200000J0D01*
G01*
G37*
%TD.AperFunction*%
%TD*%
D11*
%TO.P,Q1,1,G*%
%TO.N,Net-(Q1-G)*%
X115000000Y-53300000D03*
%TO.P,Q1,2,S*%
%TO.N,Net-(Q1-S)*%
X114000000Y-53300000D03*
%TO.P,Q1,3,D*%
%TO.N,Net-(Q1-D)*%
X114500000Y-54450000D03*
%TD*%
%TO.P,U1,1,OD*%
%TO.N,Net-(Q1-G)*%
%TA.AperFunction,SMDPad,CuDef*%
G36*
G01*
X125437500Y-49250000D02*
X125437500Y-49550000D01*
G75*
G02*
X125287500Y-49700000I-150000J0D01*
G01*
X124262500Y-49700000D01*
G75*
G02*
X124112500Y-49550000I0J150000D01*
G01*
X124112500Y-49250000D01*
G75*
G02*
X124262500Y-49100000I150000J0D01*
G01*
X125287500Y-49100000D01*
G75*
G02*
X125437500Y-49250000I0J-150000D01*
G01*
G37*
%TD.AperFunction*%
%TO.P,U1,2,CS*%
%TO.N,Net-(U1-CS)*%
%TA.AperFunction,SMDPad,CuDef*%
G36*
G01*
X125437500Y-48300000D02*
X125437500Y-48600000D01*
G75*
G02*
X125287500Y-48750000I-150000J0D01*
G01*
X124262500Y-48750000D01*
G75*
G02*
X124112500Y-48600000I0J150000D01*
G01*
X124112500Y-48300000D01*
G75*
G02*
X124262500Y-48150000I150000J0D01*
G01*
X125287500Y-48150000D01*
G75*
G02*
X125437500Y-48300000I0J-150000D01*
G01*
G37*
%TD.AperFunction*%
%TO.P,U1,3,OC*%
%TO.N,Net-(Q2-G)*%
%TA.AperFunction,SMDPad,CuDef*%
G36*
G01*
X125437500Y-47350000D02*
X125437500Y-47650000D01*
G75*
G02*
X125287500Y-47800000I-150000J0D01*
G01*
X124262500Y-47800000D01*
G75*
G02*
X124112500Y-47650000I0J150000D01*
G01*
X124112500Y-47350000D01*
G75*
G02*
X124262500Y-47200000I150000J0D01*
G01*
X125287500Y-47200000D01*
G75*
G02*
X125437500Y-47350000I0J-150000D01*
G01*
G37*
%TD.AperFunction*%
%TO.P,U1,4,TD*%
%TO.N,unconnected-(U1-TD-Pad4)*%
%TA.AperFunction,SMDPad,CuDef*%
G36*
G01*
X123162500Y-47350000D02*
X123162500Y-47650000D01*
G75*
G02*
X123012500Y-47800000I-150000J0D01*
G01*
X121987500Y-47800000D01*
G75*
G02*
X121837500Y-47650000I0J150000D01*
G01*
X121837500Y-47350000D01*
G75*
G02*
X121987500Y-47200000I150000J0D01*
G01*
X123012500Y-47200000D01*
G75*
G02*
X123162500Y-47350000I0J-150000D01*
G01*
G37*
%TD.AperFunction*%
%TO.P,U1,5,VCC*%
%TO.N,Net-(U1-VCC)*%
%TA.AperFunction,SMDPad,CuDef*%
G36*
G01*
X123162500Y-48300000D02*
X123162500Y-48600000D01*
G75*
G02*
X123012500Y-48750000I-150000J0D01*
G01*
X121987500Y-48750000D01*
G75*
G02*
X121837500Y-48600000I0J150000D01*
G01*
X121837500Y-48300000D01*
G75*
G02*
X121987500Y-48150000I150000J0D01*
G01*
X123012500Y-48150000D01*
G75*
G02*
X123162500Y-48300000I0J-150000D01*
G01*
G37*
%TD.AperFunction*%
%TO.P,U1,6,GND*%
%TO.N,Net-(Q1-S)*%
%TA.AperFunction,SMDPad,CuDef*%
G36*
G01*
X123162500Y-49250000D02*
X123162500Y-49550000D01*
G75*
G02*
X123012500Y-49700000I-150000J0D01*
G01*
X121987500Y-49700000D01*
G75*
G02*
X121837500Y-49550000I0J150000D01*
G01*
X121837500Y-49250000D01*
G75*
G02*
X121987500Y-49100000I150000J0D01*
G01*
X123012500Y-49100000D01*
G75*
G02*
X123162500Y-49250000I0J-150000D01*
G01*
G37*
%TD.AperFunction*%
%TD*%
D12*
%TO.N,Net-(Q1-S)*%
X104000000Y-57000000D02*
X106500000Y-54500000D01*
X106500000Y-54500000D02*
X107000000Y-54500000D01*
X116500000Y-49275000D02*
X122375000Y-49275000D01*
X116500000Y-49275000D02*
X115725000Y-49275000D01*
X115725000Y-49275000D02*
X114000000Y-51000000D01*
X122375000Y-49275000D02*
X122500000Y-49400000D01*
X108200000Y-53300000D02*
X114000000Y-53300000D01*
X114000000Y-51000000D02*
X114000000Y-53300000D01*
X107000000Y-54500000D02*
X108200000Y-53300000D01*
%TO.N,Net-(U1-VCC)*%
X116292500Y-47517500D02*
X116500000Y-47725000D01*
X117225000Y-48450000D02*
X122500000Y-48450000D01*
X116292500Y-44825000D02*
X116292500Y-47517500D01*
X116500000Y-47725000D02*
X117225000Y-48450000D01*
%TO.N,Net-(J1-Pad1)*%
X116825000Y-43175000D02*
X117000000Y-43000000D01*
X116117500Y-43000000D02*
X116292500Y-43175000D01*
X116292500Y-43175000D02*
X116825000Y-43175000D01*
X104500000Y-43000000D02*
X116117500Y-43000000D01*
X117000000Y-43000000D02*
X133000000Y-43000000D01*
%TO.N,Net-(Q2-D)*%
X121000000Y-54450000D02*
X127375000Y-54450000D01*
X130325000Y-54325000D02*
X133000000Y-57000000D01*
X127375000Y-54450000D02*
X127500000Y-54325000D01*
X127500000Y-54325000D02*
X130325000Y-54325000D01*
%TO.N,Net-(Q1-G)*%
X117500000Y-51500000D02*
X115700000Y-53300000D01*
X124775000Y-49400000D02*
X122675000Y-51500000D01*
X122675000Y-51500000D02*
X117500000Y-51500000D01*
X115700000Y-53300000D02*
X115000000Y-53300000D01*
%TO.N,Net-(Q1-D)*%
X119350000Y-54450000D02*
X120500000Y-53300000D01*
X114500000Y-54450000D02*
X119350000Y-54450000D01*
%TO.N,Net-(Q2-G)*%
X125300000Y-53300000D02*
X121500000Y-53300000D01*
X126500000Y-47500000D02*
X130000000Y-51000000D01*
X130000000Y-51000000D02*
X130000000Y-53500000D01*
X124775000Y-47500000D02*
X126500000Y-47500000D01*
X130000000Y-53500000D02*
X125500000Y-53500000D01*
X125500000Y-53500000D02*
X125300000Y-53300000D01*
%TO.N,Net-(U1-CS)*%
X127500000Y-50500000D02*
X127500000Y-52675000D01*
X124775000Y-48450000D02*
X125450000Y-48450000D01*
X125450000Y-48450000D02*
X127500000Y-50500000D01*
%TD*%
M02*
